<?xml version="1.0" encoding="UTF-8" standalone="no"?>
<!DOCTYPE svg PUBLIC "-//W3C//DTD SVG 1.1//EN"
 "http://www.w3.org/Graphics/SVG/1.1/DTD/svg11.dtd">
<!-- Generated by graphviz version 2.44.1 (20201121.0304)
 -->
<!-- Pages: 1 -->
<svg width="614pt" height="253pt"
 viewBox="0.00 0.00 614.00 253.00" xmlns="http://www.w3.org/2000/svg" xmlns:xlink="http://www.w3.org/1999/xlink">
<g id="graph0" class="graph" transform="scale(1 1) rotate(0) translate(4 249)">
<polygon fill="white" stroke="transparent" points="-4,4 -4,-249 610,-249 610,4 -4,4"/>
<!-- 1 -->
<g id="node1" class="node">
<title>1</title>
<polygon fill="#90ee90" stroke="transparent" points="0,-56.5 0,-75.5 90,-75.5 90,-56.5 0,-56.5"/>
<polygon fill="none" stroke="black" points="0,-56.5 0,-75.5 90,-75.5 90,-56.5 0,-56.5"/>
<text text-anchor="start" x="13.5" y="-64.5" font-family="Courier,monospace" font-size="8.00">Config:</text>
<text text-anchor="start" x="45.5" y="-64.5" font-family="Courier,monospace" font-size="10.00"> load</text>
<polygon fill="#eeeeee" stroke="transparent" points="0,-37.5 0,-56.5 39,-56.5 39,-37.5 0,-37.5"/>
<polygon fill="none" stroke="black" points="0,-37.5 0,-56.5 39,-56.5 39,-37.5 0,-37.5"/>
<text text-anchor="start" x="10" y="-44.5" font-family="Courier,monospace" font-size="10.00">name</text>
<polygon fill="none" stroke="black" points="39,-37.5 39,-56.5 90,-56.5 90,-37.5 39,-37.5"/>
<text text-anchor="start" x="43" y="-44.5" font-family="Courier,monospace" font-size="10.00">&#39;snli&#39;</text>
<polygon fill="#eeeeee" stroke="transparent" points="0,-18.5 0,-37.5 39,-37.5 39,-18.5 0,-18.5"/>
<polygon fill="none" stroke="black" points="0,-18.5 0,-37.5 39,-37.5 39,-18.5 0,-18.5"/>
<text text-anchor="start" x="4" y="-25.5" font-family="Courier,monospace" font-size="10.00">split</text>
<polygon fill="none" stroke="black" points="39,-18.5 39,-37.5 90,-37.5 90,-18.5 39,-18.5"/>
<text text-anchor="start" x="43" y="-25.5" font-family="Courier,monospace" font-size="10.00">&#39;train&#39;</text>
</g>
<!-- 0 -->
<g id="node2" class="node">
<title>0</title>
<polygon fill="#ffc0cb" stroke="transparent" points="159,-226 159,-245 308,-245 308,-226 159,-226"/>
<polygon fill="none" stroke="black" points="159,-226 159,-245 308,-245 308,-226 159,-226"/>
<text text-anchor="start" x="163" y="-234" font-family="Courier,monospace" font-size="8.00">Config:</text>
<text text-anchor="start" x="195" y="-234" font-family="Courier,monospace" font-size="10.00"> SingleTaskTrainer</text>
<polygon fill="#eeeeee" stroke="transparent" points="159,-207 159,-226 251,-226 251,-207 159,-207"/>
<polygon fill="none" stroke="black" points="159,-207 159,-226 251,-226 251,-207 159,-207"/>
<text text-anchor="start" x="168" y="-214" font-family="Courier,monospace" font-size="10.00">train_dataset</text>
<polygon fill="none" stroke="black" points="251,-207 251,-226 308,-226 308,-207 251,-207"/>
<polygon fill="#90ee90" stroke="transparent" points="255,-211 255,-222 304,-222 304,-211 255,-211"/>
<polygon fill="none" stroke="black" points="255,-211 255,-222 304,-222 304,-211 255,-211"/>
<polygon fill="#eeeeee" stroke="transparent" points="159,-188 159,-207 251,-207 251,-188 159,-188"/>
<polygon fill="none" stroke="black" points="159,-188 159,-207 251,-207 251,-188 159,-188"/>
<text text-anchor="start" x="192" y="-195" font-family="Courier,monospace" font-size="10.00">label_key</text>
<polygon fill="none" stroke="black" points="251,-188 251,-207 308,-207 308,-188 251,-188"/>
<text text-anchor="start" x="255" y="-195" font-family="Courier,monospace" font-size="10.00">&#39;label&#39;</text>
<polygon fill="#eeeeee" stroke="transparent" points="159,-169 159,-188 251,-188 251,-169 159,-169"/>
<polygon fill="none" stroke="black" points="159,-169 159,-188 251,-188 251,-169 159,-169"/>
<text text-anchor="start" x="216" y="-176" font-family="Courier,monospace" font-size="10.00">model</text>
<polygon fill="none" stroke="black" points="251,-169 251,-188 308,-188 308,-169 251,-169"/>
<polygon fill="#fff8dc" stroke="transparent" points="255,-173 255,-184 304,-184 304,-173 255,-173"/>
<polygon fill="none" stroke="black" points="255,-173 255,-184 304,-184 304,-173 255,-173"/>
<polygon fill="#eeeeee" stroke="transparent" points="159,-150 159,-169 251,-169 251,-150 159,-150"/>
<polygon fill="none" stroke="black" points="159,-150 159,-169 251,-169 251,-150 159,-150"/>
<text text-anchor="start" x="204" y="-157" font-family="Courier,monospace" font-size="10.00">loss_fn</text>
<polygon fill="none" stroke="black" points="251,-150 251,-169 308,-169 308,-150 251,-150"/>
<polygon fill="#ffa07a" stroke="transparent" points="255,-154 255,-165 304,-165 304,-154 255,-154"/>
<polygon fill="none" stroke="black" points="255,-154 255,-165 304,-165 304,-154 255,-154"/>
<polygon fill="#eeeeee" stroke="transparent" points="159,-131 159,-150 251,-150 251,-131 159,-131"/>
<polygon fill="none" stroke="black" points="159,-131 159,-150 251,-150 251,-131 159,-131"/>
<text text-anchor="start" x="192" y="-138" font-family="Courier,monospace" font-size="10.00">optimizer</text>
<polygon fill="none" stroke="black" points="251,-131 251,-150 308,-150 308,-131 251,-131"/>
<polygon fill="#add8e6" stroke="transparent" points="255,-135 255,-146 304,-146 304,-135 255,-135"/>
<polygon fill="none" stroke="black" points="255,-135 255,-146 304,-146 304,-135 255,-135"/>
</g>
<!-- 0&#45;&#45;1 -->
<g id="edge1" class="edge">
<title>0:c&#45;&#45;1:c</title>
<path fill="none" stroke="#000000" stroke-width="4" stroke-opacity="0.078431" d="M271.45,-210.8C245.06,-194.65 162.79,-143.5 99,-95 91.32,-89.16 83.3,-82.56 75.87,-76.21"/>
</g>
<!-- 2 -->
<g id="node3" class="node">
<title>2</title>
<polygon fill="#fff8dc" stroke="transparent" points="108,-75.5 108,-94.5 264,-94.5 264,-75.5 108,-75.5"/>
<polygon fill="none" stroke="black" points="108,-75.5 108,-94.5 264,-94.5 264,-75.5 108,-75.5"/>
<text text-anchor="start" x="133.5" y="-83.5" font-family="Courier,monospace" font-size="8.00">Config:</text>
<text text-anchor="start" x="165.5" y="-83.5" font-family="Courier,monospace" font-size="10.00"> BertEncoder</text>
<polygon fill="#eeeeee" stroke="transparent" points="108,-56.5 108,-75.5 231,-75.5 231,-56.5 108,-56.5"/>
<polygon fill="none" stroke="black" points="108,-56.5 108,-75.5 231,-75.5 231,-56.5 108,-56.5"/>
<text text-anchor="start" x="160" y="-63.5" font-family="Courier,monospace" font-size="10.00">hidden_size</text>
<polygon fill="none" stroke="black" points="231,-56.5 231,-75.5 264,-75.5 264,-56.5 231,-56.5"/>
<text text-anchor="start" x="235" y="-63.5" font-family="Courier,monospace" font-size="10.00">768</text>
<polygon fill="#eeeeee" stroke="transparent" points="108,-37.5 108,-56.5 231,-56.5 231,-37.5 108,-37.5"/>
<polygon fill="none" stroke="black" points="108,-37.5 108,-56.5 231,-56.5 231,-37.5 108,-37.5"/>
<text text-anchor="start" x="124" y="-44.5" font-family="Courier,monospace" font-size="10.00">intermediate_size</text>
<polygon fill="none" stroke="black" points="231,-37.5 231,-56.5 264,-56.5 264,-37.5 231,-37.5"/>
<text text-anchor="start" x="235" y="-44.5" font-family="Courier,monospace" font-size="10.00">3072</text>
<polygon fill="#eeeeee" stroke="transparent" points="108,-18.5 108,-37.5 231,-37.5 231,-18.5 108,-18.5"/>
<polygon fill="none" stroke="black" points="108,-18.5 108,-37.5 231,-37.5 231,-18.5 108,-18.5"/>
<text text-anchor="start" x="166" y="-25.5" font-family="Courier,monospace" font-size="10.00">num_layers</text>
<polygon fill="none" stroke="black" points="231,-18.5 231,-37.5 264,-37.5 264,-18.5 231,-18.5"/>
<text text-anchor="start" x="235" y="-25.5" font-family="Courier,monospace" font-size="10.00">8</text>
<polygon fill="#eeeeee" stroke="transparent" points="108,0.5 108,-18.5 231,-18.5 231,0.5 108,0.5"/>
<polygon fill="none" stroke="black" points="108,0.5 108,-18.5 231,-18.5 231,0.5 108,0.5"/>
<text text-anchor="start" x="112" y="-6.5" font-family="Courier,monospace" font-size="10.00">num_attention_heads</text>
<polygon fill="none" stroke="black" points="231,0.5 231,-18.5 264,-18.5 264,0.5 231,0.5"/>
<text text-anchor="start" x="235" y="-6.5" font-family="Courier,monospace" font-size="10.00">8</text>
</g>
<!-- 0&#45;&#45;2 -->
<g id="edge2" class="edge">
<title>0:c&#45;&#45;2:c</title>
<path fill="none" stroke="#000000" stroke-width="4" stroke-opacity="0.078431" d="M276.87,-172.72C268.02,-160.62 241.99,-125.04 220.04,-95.04"/>
</g>
<!-- 3 -->
<g id="node4" class="node">
<title>3</title>
<polygon fill="#ffa07a" stroke="transparent" points="283,-47.5 283,-66.5 468,-66.5 468,-47.5 283,-47.5"/>
<polygon fill="none" stroke="black" points="283,-47.5 283,-66.5 468,-66.5 468,-47.5 283,-47.5"/>
<text text-anchor="start" x="287" y="-55.5" font-family="Courier,monospace" font-size="8.00">Config:</text>
<text text-anchor="start" x="319" y="-55.5" font-family="Courier,monospace" font-size="10.00"> CategoricalCrossentropy</text>
<polygon fill="#eeeeee" stroke="transparent" points="283,-28.5 283,-47.5 396,-47.5 396,-28.5 283,-28.5"/>
<polygon fill="none" stroke="black" points="283,-28.5 283,-47.5 396,-47.5 396,-28.5 283,-28.5"/>
<text text-anchor="start" x="325" y="-35.5" font-family="Courier,monospace" font-size="10.00">from_logits</text>
<polygon fill="none" stroke="black" points="396,-28.5 396,-47.5 468,-47.5 468,-28.5 396,-28.5"/>
<text text-anchor="start" x="400" y="-35.5" font-family="Courier,monospace" font-size="10.00">True</text>
</g>
<!-- 0&#45;&#45;3 -->
<g id="edge3" class="edge">
<title>0:c&#45;&#45;3:c</title>
<path fill="none" stroke="#000000" stroke-width="4" stroke-opacity="0.078431" d="M283.61,-153.84C295.88,-139.7 336.48,-92.9 359.22,-66.69"/>
</g>
<!-- 4 -->
<g id="node5" class="node">
<title>4</title>
<polygon fill="#add8e6" stroke="transparent" points="486,-47.5 486,-66.5 606,-66.5 606,-47.5 486,-47.5"/>
<polygon fill="none" stroke="black" points="486,-47.5 486,-66.5 606,-66.5 606,-47.5 486,-47.5"/>
<text text-anchor="start" x="514.5" y="-55.5" font-family="Courier,monospace" font-size="8.00">Config:</text>
<text text-anchor="start" x="546.5" y="-55.5" font-family="Courier,monospace" font-size="10.00"> Adam</text>
<polygon fill="#eeeeee" stroke="transparent" points="486,-28.5 486,-47.5 573,-47.5 573,-28.5 486,-28.5"/>
<polygon fill="none" stroke="black" points="486,-28.5 486,-47.5 573,-47.5 573,-28.5 486,-28.5"/>
<text text-anchor="start" x="490" y="-35.5" font-family="Courier,monospace" font-size="10.00">learning_rate</text>
<polygon fill="none" stroke="black" points="573,-28.5 573,-47.5 606,-47.5 606,-28.5 573,-28.5"/>
<text text-anchor="start" x="577" y="-35.5" font-family="Courier,monospace" font-size="10.00">0.01</text>
</g>
<!-- 0&#45;&#45;4 -->
<g id="edge4" class="edge">
<title>0:c&#45;&#45;4:c</title>
<path fill="none" stroke="#000000" stroke-width="4" stroke-opacity="0.078431" d="M304.24,-136.53C342.32,-132 417.93,-120.42 477,-95 493.72,-87.81 510.7,-76.43 523.63,-66.73"/>
</g>
</g>
</svg>
