<svg version="1.1" width="600.0" height="300.0" viewBox="300.0 50.0 700.0 300.0" fill="none" stroke="none" stroke-linecap="square" stroke-miterlimit="10" xmlns:xlink="http://www.w3.org/1999/xlink" xmlns="http://www.w3.org/2000/svg"><clipPath id="p.0"><path d="m0 0l1280.0 0l0 960.0l-1280.0 0l0 -960.0z" clip-rule="nonzero"/></clipPath><g clip-path="url(#p.0)"><path fill="#000000" fill-opacity="0.0" d="m0 0l1280.0 0l0 960.0l-1280.0 0z" fill-rule="evenodd"/><path fill="#fff2cc" d="m349.82678 39.818897l154.58267 0l0 48.125988l-154.58267 0z" fill-rule="evenodd"/><path stroke="#bf9000" stroke-width="1.0" stroke-linejoin="round" stroke-linecap="butt" d="m349.82678 39.818897l154.58267 0l0 48.125988l-154.58267 0z" fill-rule="evenodd"/><path fill="#434343" d="m366.04553 67.44251q0 -0.984375 -0.53125 -1.515625q-0.53125 -0.53125 -1.9375 -1.03125q-1.40625 -0.5 -2.15625 -1.046875q-0.734375 -0.546875 -1.109375 -1.25q-0.359375 -0.71875 -0.359375 -1.625q0 -1.578125 1.046875 -2.59375q1.046875 -1.03125 2.75 -1.03125q1.171875 0 2.078125 0.53125q0.921875 0.53125 1.40625 1.453125q0.5 0.921875 0.5 2.046875l-1.6875 0q0 -1.234375 -0.59375 -1.90625q-0.578125 -0.671875 -1.703125 -0.671875q-1.0 0 -1.5625 0.5625q-0.546875 0.5625 -0.546875 1.578125q0 0.84375 0.59375 1.40625q0.609375 0.5625 1.859375 1.015625q1.953125 0.640625 2.796875 1.59375q0.84375 0.9375 0.84375 2.46875q0 1.609375 -1.046875 2.59375q-1.046875 0.96875 -2.84375 0.96875q-1.15625 0 -2.140625 -0.5q-0.984375 -0.515625 -1.546875 -1.421875q-0.546875 -0.921875 -0.546875 -2.109375l1.671875 0q0 1.234375 0.6875 1.921875q0.6875 0.671875 1.875 0.671875q1.09375 0 1.640625 -0.5625q0.5625 -0.5625 0.5625 -1.546875zm5.383911 3.359375l-1.609375 0l0 -9.859375l1.609375 0l0 9.859375zm0.125 -12.46875q0 0.40625 -0.234375 0.6875q-0.21875 0.265625 -0.671875 0.265625q-0.46875 0 -0.703125 -0.265625q-0.21875 -0.28125 -0.21875 -0.6875q0 -0.40625 0.21875 -0.6875q0.234375 -0.296875 0.6875 -0.296875q0.46875 0 0.6875 0.296875q0.234375 0.28125 0.234375 0.6875zm3.9286194 2.609375l0.046875 1.0625q0.9375 -1.234375 2.40625 -1.234375q2.609375 0 2.640625 3.484375l0 6.546875l-1.59375 0l0 -6.484375q0 -1.15625 -0.390625 -1.640625q-0.390625 -0.484375 -1.15625 -0.484375q-0.609375 0 -1.09375 0.40625q-0.46875 0.390625 -0.765625 1.046875l0 7.15625l-1.609375 0l0 -9.859375l1.515625 0zm7.1993713 4.484375q0 -2.296875 0.828125 -3.46875q0.84375 -1.1875 2.453125 -1.1875q1.5 0 2.28125 1.28125l0.09375 -1.109375l1.453125 0l0 9.953125q0 1.828125 -0.9375 2.796875q-0.9375 0.984375 -2.609375 0.984375q-0.734375 0 -1.640625 -0.359375q-0.90625 -0.359375 -1.359375 -0.890625l0.65625 -1.109375q1.0 0.984375 2.203125 0.984375q2.015625 0 2.078125 -2.1875l0 -1.28125q-0.78125 1.15625 -2.234375 1.15625q-1.53125 0 -2.390625 -1.15625q-0.84375 -1.15625 -0.875 -3.3125l0 -1.09375zm1.609375 0.921875q0 1.65625 0.484375 2.4375q0.484375 0.78125 1.59375 0.78125q1.203125 0 1.8125 -1.234375l0 -4.921875q-0.640625 -1.21875 -1.796875 -1.21875q-1.109375 0 -1.609375 0.78125q-0.484375 0.78125 -0.484375 2.390625l0 0.984375zm9.628998 4.453125l-1.609375 0l0 -14.0l1.609375 0l0 14.0zm6.069214 0.1875q-1.84375 0 -2.828125 -1.09375q-0.984375 -1.109375 -1.0 -3.234375l0 -1.1875q0 -2.203125 0.953125 -3.453125q0.96875 -1.25 2.6875 -1.25q1.734375 0 2.578125 1.109375q0.859375 1.09375 0.875 3.421875l0 1.046875l-5.5 0l0 0.234375q0 1.59375 0.59375 2.3125q0.609375 0.71875 1.71875 0.71875q0.71875 0 1.25 -0.265625q0.546875 -0.28125 1.03125 -0.859375l0.828125 1.015625q-1.046875 1.484375 -3.1875 1.484375zm-0.1875 -8.84375q-1.0 0 -1.484375 0.6875q-0.484375 0.6875 -0.546875 2.140625l3.875 0l0 -0.21875q-0.0625 -1.40625 -0.5 -2.0q-0.4375 -0.609375 -1.34375 -0.609375zm13.376648 -3.171875l-3.5 0l0 11.828125l-1.65625 0l0 -11.828125l-3.484375 0l0 -1.4375l8.640625 0l0 1.4375zm5.7745056 11.828125q-0.15625 -0.3125 -0.21875 -1.078125q-0.859375 1.265625 -2.1875 1.265625q-1.328125 0 -2.09375 -0.75q-0.75 -0.765625 -0.75 -2.125q0 -1.5 1.015625 -2.375q1.03125 -0.890625 2.8125 -0.90625l1.1875 0l0 -1.046875q0 -0.890625 -0.40625 -1.265625q-0.390625 -0.375 -1.1875 -0.375q-0.734375 0 -1.1875 0.4375q-0.453125 0.4375 -0.453125 1.09375l-1.609375 0q0 -0.75 0.4375 -1.4375q0.453125 -0.6875 1.203125 -1.078125q0.765625 -0.390625 1.6875 -0.390625q1.515625 0 2.296875 0.75q0.796875 0.75 0.8125 2.1875l0 4.96875q0.015625 1.140625 0.3125 1.984375l0 0.140625l-1.671875 0zm-2.15625 -1.28125q0.59375 0 1.125 -0.328125q0.546875 -0.328125 0.796875 -0.828125l0 -2.34375l-0.921875 0q-1.140625 0.015625 -1.8125 0.515625q-0.65625 0.5 -0.65625 1.390625q0 0.828125 0.328125 1.21875q0.34375 0.375 1.140625 0.375zm10.811432 -1.234375q0 -0.53125 -0.40625 -0.90625q-0.390625 -0.375 -1.5 -0.875q-1.3125 -0.53125 -1.84375 -0.90625q-0.53125 -0.390625 -0.796875 -0.875q-0.265625 -0.484375 -0.265625 -1.15625q0 -1.203125 0.875 -2.0q0.890625 -0.796875 2.25 -0.796875q1.4375 0 2.3125 0.84375q0.875 0.828125 0.875 2.140625l-1.59375 0q0 -0.671875 -0.453125 -1.140625q-0.4375 -0.46875 -1.140625 -0.46875q-0.703125 0 -1.109375 0.375q-0.40625 0.359375 -0.40625 0.984375q0 0.484375 0.296875 0.796875q0.296875 0.296875 1.421875 0.78125q1.796875 0.703125 2.4375 1.375q0.65625 0.671875 0.65625 1.703125q0 1.28125 -0.890625 2.0625q-0.875 0.765625 -2.359375 0.765625q-1.546875 0 -2.5 -0.875q-0.953125 -0.890625 -0.953125 -2.25l1.609375 0q0.03125 0.8125 0.5 1.28125q0.484375 0.46875 1.34375 0.46875q0.796875 0 1.21875 -0.359375q0.421875 -0.359375 0.421875 -0.96875zm6.1866455 -2.0l-0.859375 0.984375l0 3.53125l-1.609375 0l0 -14.0l1.609375 0l0 8.375l3.0625 -4.234375l1.9375 0l-3.140625 4.125l3.546875 5.734375l-1.875 0l-2.671875 -4.515625zm13.908081 -7.3125l-3.5 0l0 11.828125l-1.65625 0l0 -11.828125l-3.484375 0l0 -1.4375l8.640625 0l0 1.4375zm5.12088 3.484375q-0.34375 -0.0625 -0.734375 -0.0625q-1.234375 0 -1.734375 1.359375l0 7.046875l-1.609375 0l0 -9.859375l1.5625 0l0.03125 1.0q0.640625 -1.171875 1.828125 -1.171875q0.390625 0 0.640625 0.125l0.015625 1.5625zm6.3106384 8.34375q-0.15625 -0.3125 -0.21875 -1.078125q-0.859375 1.265625 -2.1875 1.265625q-1.328125 0 -2.09375 -0.75q-0.75 -0.765625 -0.75 -2.125q0 -1.5 1.015625 -2.375q1.03125 -0.890625 2.8125 -0.90625l1.1875 0l0 -1.046875q0 -0.890625 -0.40625 -1.265625q-0.390625 -0.375 -1.1875 -0.375q-0.734375 0 -1.1875 0.4375q-0.453125 0.4375 -0.453125 1.09375l-1.609375 0q0 -0.75 0.4375 -1.4375q0.453125 -0.6875 1.203125 -1.078125q0.765625 -0.390625 1.6875 -0.390625q1.515625 0 2.296875 0.75q0.796875 0.75 0.8125 2.1875l0 4.96875q0.015625 1.140625 0.3125 1.984375l0 0.140625l-1.671875 0zm-2.15625 -1.28125q0.59375 0 1.125 -0.328125q0.546875 -0.328125 0.796875 -0.828125l0 -2.34375l-0.921875 0q-1.140625 0.015625 -1.8125 0.515625q-0.65625 0.5 -0.65625 1.390625q0 0.828125 0.328125 1.21875q0.34375 0.375 1.140625 0.375zm7.7489014 1.28125l-1.609375 0l0 -9.859375l1.609375 0l0 9.859375zm0.125 -12.46875q0 0.40625 -0.234375 0.6875q-0.21875 0.265625 -0.671875 0.265625q-0.46875 0 -0.703125 -0.265625q-0.21875 -0.28125 -0.21875 -0.6875q0 -0.40625 0.21875 -0.6875q0.234375 -0.296875 0.6875 -0.296875q0.46875 0 0.6875 0.296875q0.234375 0.28125 0.234375 0.6875zm3.9286194 2.609375l0.046875 1.0625q0.9375 -1.234375 2.40625 -1.234375q2.609375 0 2.640625 3.484375l0 6.546875l-1.59375 0l0 -6.484375q0 -1.15625 -0.390625 -1.640625q-0.390625 -0.484375 -1.15625 -0.484375q-0.609375 0 -1.09375 0.40625q-0.46875 0.390625 -0.765625 1.046875l0 7.15625l-1.609375 0l0 -9.859375l1.515625 0zm11.043121 10.046875q-1.84375 0 -2.828125 -1.09375q-0.984375 -1.109375 -1.0 -3.234375l0 -1.1875q0 -2.203125 0.953125 -3.453125q0.96875 -1.25 2.6875 -1.25q1.734375 0 2.578125 1.109375q0.859375 1.09375 0.875 3.421875l0 1.046875l-5.5 0l0 0.234375q0 1.59375 0.59375 2.3125q0.609375 0.71875 1.71875 0.71875q0.71875 0 1.25 -0.265625q0.546875 -0.28125 1.03125 -0.859375l0.828125 1.015625q-1.046875 1.484375 -3.1875 1.484375zm-0.1875 -8.84375q-1.0 0 -1.484375 0.6875q-0.484375 0.6875 -0.546875 2.140625l3.875 0l0 -0.21875q-0.0625 -1.40625 -0.5 -2.0q-0.4375 -0.609375 -1.34375 -0.609375zm9.470398 0.3125q-0.34375 -0.0625 -0.734375 -0.0625q-1.234375 0 -1.734375 1.359375l0 7.046875l-1.609375 0l0 -9.859375l1.5625 0l0.03125 1.0q0.640625 -1.171875 1.828125 -1.171875q0.390625 0 0.640625 0.125l0.015625 1.5625z" fill-rule="nonzero"/><path fill="#d9ead3" d="m466.61417 126.21785l119.40158 0l0 48.125977l-119.40158 0z" fill-rule="evenodd"/><path stroke="#38761d" stroke-width="1.0" stroke-linejoin="round" stroke-linecap="butt" d="m466.61417 126.21785l119.40158 0l0 48.125977l-119.40158 0z" fill-rule="evenodd"/><path fill="#434343" d="m478.92667 144.95084l0 2.390625l1.484375 0l0 1.3125l-1.484375 0l0 6.109375q0 0.578125 0.1875 0.890625q0.203125 0.296875 0.65625 0.296875q0.328125 0 0.65625 -0.109375l-0.015625 1.359375q-0.546875 0.1875 -1.125 0.1875q-0.953125 0 -1.453125 -0.6875q-0.5 -0.6875 -0.5 -1.9375l0 -6.109375l-1.515625 0l0 -1.3125l1.515625 0l0 -2.390625l1.59375 0zm4.105011 12.25l0 -8.546875l-1.28125 0l0 -1.3125l1.28125 0l0 -1.140625q0.03125 -1.5 0.765625 -2.34375q0.734375 -0.84375 2.078125 -0.84375q0.484375 0 0.96875 0.15625l-0.078125 1.375q-0.34375 -0.09375 -0.734375 -0.09375q-1.375 0 -1.375 1.96875l0 0.921875l1.671875 0l0 1.3125l-1.671875 0l0 8.546875l-1.625 0zm4.637329 -5.375q0 -2.28125 0.84375 -3.46875q0.859375 -1.1875 2.453125 -1.1875q1.421875 0 2.21875 1.140625l0 -5.109375l1.609375 0l0 14.0l-1.484375 0l-0.078125 -1.0625q-0.796875 1.25 -2.265625 1.25q-1.53125 0 -2.40625 -1.1875q-0.859375 -1.203125 -0.890625 -3.359375l0 -1.015625zm1.625 0.921875q0 1.65625 0.484375 2.4375q0.5 0.78125 1.609375 0.78125q1.203125 0 1.796875 -1.21875l0 -4.96875q-0.625 -1.1875 -1.796875 -1.1875q-1.109375 0 -1.609375 0.78125q-0.484375 0.78125 -0.484375 2.390625l0 0.984375zm12.770874 1.9375q0 -0.53125 -0.40625 -0.90625q-0.390625 -0.375 -1.5 -0.875q-1.3125 -0.53125 -1.84375 -0.90625q-0.53125 -0.390625 -0.796875 -0.875q-0.265625 -0.484375 -0.265625 -1.15625q0 -1.203125 0.875 -2.0q0.890625 -0.796875 2.25 -0.796875q1.4375 0 2.3125 0.84375q0.875 0.828125 0.875 2.140625l-1.59375 0q0 -0.671875 -0.453125 -1.140625q-0.4375 -0.46875 -1.140625 -0.46875q-0.703125 0 -1.109375 0.375q-0.40625 0.359375 -0.40625 0.984375q0 0.484375 0.296875 0.796875q0.296875 0.296875 1.421875 0.78125q1.796875 0.703125 2.4375 1.375q0.65625 0.671875 0.65625 1.703125q0 1.28125 -0.890625 2.0625q-0.875 0.765625 -2.359375 0.765625q-1.546875 0 -2.5 -0.875q-0.953125 -0.890625 -0.953125 -2.25l1.609375 0q0.03125 0.8125 0.5 1.28125q0.484375 0.46875 1.34375 0.46875q0.796875 0 1.21875 -0.359375q0.421875 -0.359375 0.421875 -0.96875zm3.8116455 1.625q0 -0.4375 0.25 -0.71875q0.265625 -0.296875 0.78125 -0.296875q0.53125 0 0.796875 0.296875q0.265625 0.28125 0.265625 0.71875q0 0.421875 -0.265625 0.703125q-0.265625 0.28125 -0.796875 0.28125q-0.515625 0 -0.78125 -0.28125q-0.25 -0.28125 -0.25 -0.703125zm6.535034 0.890625l-1.609375 0l0 -14.0l1.609375 0l0 14.0zm2.1942139 -5.390625q0 -2.140625 1.046875 -3.390625q1.046875 -1.25 2.75 -1.25q1.71875 0 2.765625 1.21875q1.046875 1.21875 1.0625 3.3125l0 1.046875q0 2.140625 -1.046875 3.390625q-1.03125 1.25 -2.75 1.25q-1.71875 0 -2.75 -1.203125q-1.03125 -1.21875 -1.078125 -3.296875l0 -1.078125zm1.625 0.9375q0 1.515625 0.59375 2.390625q0.59375 0.875 1.609375 0.875q2.125 0 2.1875 -3.078125l0 -1.125q0 -1.5 -0.609375 -2.375q-0.59375 -0.890625 -1.59375 -0.890625q-1.0 0 -1.59375 0.890625q-0.59375 0.875 -0.59375 2.375l0 0.9375zm13.161438 4.453125q-0.15625 -0.3125 -0.21875 -1.078125q-0.859375 1.265625 -2.1875 1.265625q-1.328125 0 -2.09375 -0.75q-0.75 -0.765625 -0.75 -2.125q0 -1.5 1.015625 -2.375q1.03125 -0.890625 2.8125 -0.90625l1.1875 0l0 -1.046875q0 -0.890625 -0.40625 -1.265625q-0.390625 -0.375 -1.1875 -0.375q-0.734375 0 -1.1875 0.4375q-0.453125 0.4375 -0.453125 1.09375l-1.609375 0q0 -0.75 0.4375 -1.4375q0.453125 -0.6875 1.203125 -1.078125q0.765625 -0.390625 1.6875 -0.390625q1.515625 0 2.296875 0.75q0.796875 0.75 0.8125 2.1875l0 4.96875q0.015625 1.140625 0.3125 1.984375l0 0.140625l-1.671875 0zm-2.15625 -1.28125q0.59375 0 1.125 -0.328125q0.546875 -0.328125 0.796875 -0.828125l0 -2.34375l-0.921875 0q-1.140625 0.015625 -1.8125 0.515625q-0.65625 0.5 -0.65625 1.390625q0 0.828125 0.328125 1.21875q0.34375 0.375 1.140625 0.375zm5.6707764 -4.09375q0 -2.28125 0.84375 -3.46875q0.859375 -1.1875 2.453125 -1.1875q1.421875 0 2.21875 1.140625l0 -5.109375l1.609375 0l0 14.0l-1.484375 0l-0.078125 -1.0625q-0.796875 1.25 -2.265625 1.25q-1.53125 0 -2.40625 -1.1875q-0.859375 -1.203125 -0.890625 -3.359375l0 -1.015625zm1.625 0.921875q0 1.65625 0.484375 2.4375q0.5 0.78125 1.609375 0.78125q1.203125 0 1.796875 -1.21875l0 -4.96875q-0.625 -1.1875 -1.796875 -1.1875q-1.109375 0 -1.609375 0.78125q-0.484375 0.78125 -0.484375 2.390625l0 0.984375z" fill-rule="nonzero"/><path fill="#d9ead3" d="m466.61417 188.46457l119.40158 0l0 48.125977l-119.40158 0z" fill-rule="evenodd"/><path stroke="#38761d" stroke-width="1.0" stroke-linejoin="round" stroke-linecap="butt" d="m466.61417 188.46457l119.40158 0l0 48.125977l-119.40158 0z" fill-rule="evenodd"/><path fill="#434343" d="m477.05167 219.44756l0 -13.265625l3.765625 0q1.8125 0 2.734375 0.890625q0.921875 0.875 0.921875 2.640625q0 0.9375 -0.46875 1.65625q-0.46875 0.703125 -1.265625 1.09375q0.921875 0.265625 1.453125 1.125q0.53125 0.84375 0.53125 2.03125q0 1.78125 -0.984375 2.8125q-0.96875 1.015625 -2.78125 1.015625l-3.90625 0zm1.65625 -6.203125l0 4.765625l2.28125 0q0.953125 0 1.5 -0.609375q0.5625 -0.625 0.5625 -1.765625q0 -2.390625 -2.03125 -2.390625l-2.3125 0zm0 -1.40625l2.140625 0q0.875 0 1.40625 -0.578125q0.53125 -0.578125 0.53125 -1.546875q0 -1.09375 -0.484375 -1.59375q-0.484375 -0.5 -1.484375 -0.5l-2.109375 0l0 4.21875zm11.8159485 7.796875q-1.84375 0 -2.828125 -1.09375q-0.984375 -1.109375 -1.0 -3.234375l0 -1.1875q0 -2.203125 0.953125 -3.453125q0.96875 -1.25 2.6875 -1.25q1.734375 0 2.578125 1.109375q0.859375 1.09375 0.875 3.421875l0 1.046875l-5.5 0l0 0.234375q0 1.59375 0.59375 2.3125q0.609375 0.71875 1.71875 0.71875q0.71875 0 1.25 -0.265625q0.546875 -0.28125 1.03125 -0.859375l0.828125 1.015625q-1.046875 1.484375 -3.1875 1.484375zm-0.1875 -8.84375q-1.0 0 -1.484375 0.6875q-0.484375 0.6875 -0.546875 2.140625l3.875 0l0 -0.21875q-0.0625 -1.40625 -0.5 -2.0q-0.4375 -0.609375 -1.34375 -0.609375zm9.470367 0.3125q-0.34375 -0.0625 -0.734375 -0.0625q-1.234375 0 -1.734375 1.359375l0 7.046875l-1.609375 0l0 -9.859375l1.5625 0l0.03125 1.0q0.640625 -1.171875 1.828125 -1.171875q0.390625 0 0.640625 0.125l0.015625 1.5625zm4.162201 -3.90625l0 2.390625l1.484375 0l0 1.3125l-1.484375 0l0 6.109375q0 0.578125 0.1875 0.890625q0.203125 0.296875 0.65625 0.296875q0.328125 0 0.65625 -0.109375l-0.015625 1.359375q-0.546875 0.1875 -1.125 0.1875q-0.953125 0 -1.453125 -0.6875q-0.5 -0.6875 -0.5 -1.9375l0 -6.109375l-1.515625 0l0 -1.3125l1.515625 0l0 -2.390625l1.59375 0zm9.97998 6.125l-4.6874695 0l0 4.6875l5.4687195 0l0 1.4375l-7.1249695 0l0 -13.265625l7.0312195 0l0 1.4375l-5.3749695 0l0 4.265625l4.6874695 0l0 1.4375zm4.2019043 -3.734375l0.046875 1.0625q0.9375 -1.234375 2.40625 -1.234375q2.609375 0 2.640625 3.484375l0 6.546875l-1.59375 0l0 -6.484375q0 -1.15625 -0.390625 -1.640625q-0.390625 -0.484375 -1.15625 -0.484375q-0.609375 0 -1.09375 0.40625q-0.46875 0.390625 -0.765625 1.046875l0 7.15625l-1.609375 0l0 -9.859375l1.515625 0zm10.933716 8.671875q0.796875 0 1.28125 -0.5q0.484375 -0.5 0.53125 -1.421875l1.53125 0q-0.0625 1.421875 -1.015625 2.359375q-0.953125 0.9375 -2.328125 0.9375q-1.828125 0 -2.796875 -1.15625q-0.953125 -1.15625 -0.953125 -3.4375l0 -1.078125q0 -2.234375 0.953125 -3.390625q0.953125 -1.15625 2.796875 -1.15625q1.5 0 2.390625 0.953125q0.890625 0.953125 0.953125 2.609375l-1.53125 0q-0.046875 -1.09375 -0.515625 -1.640625q-0.46875 -0.546875 -1.296875 -0.546875q-1.078125 0 -1.609375 0.71875q-0.515625 0.703125 -0.53125 2.3125l0 1.25q0 1.75 0.515625 2.46875q0.515625 0.71875 1.625 0.71875zm4.8519897 -4.203125q0 -2.140625 1.046875 -3.390625q1.046875 -1.25 2.75 -1.25q1.71875 0 2.765625 1.21875q1.046875 1.21875 1.0625 3.3125l0 1.046875q0 2.140625 -1.046875 3.390625q-1.03125 1.25 -2.75 1.25q-1.71875 0 -2.75 -1.203125q-1.03125 -1.21875 -1.078125 -3.296875l0 -1.078125zm1.625 0.9375q0 1.515625 0.59375 2.390625q0.59375 0.875 1.609375 0.875q2.125 0 2.1875 -3.078125l0 -1.125q0 -1.5 -0.609375 -2.375q-0.59375 -0.890625 -1.59375 -0.890625q-1.0 0 -1.59375 0.890625q-0.59375 0.875 -0.59375 2.375l0 0.9375zm7.739563 -0.921875q0 -2.28125 0.84375 -3.46875q0.859375 -1.1875 2.453125 -1.1875q1.421875 0 2.21875 1.140625l0 -5.109375l1.609375 0l0 14.0l-1.484375 0l-0.078125 -1.0625q-0.796875 1.25 -2.265625 1.25q-1.53125 0 -2.40625 -1.1875q-0.859375 -1.203125 -0.890625 -3.359375l0 -1.015625zm1.625 0.921875q0 1.65625 0.484375 2.4375q0.5 0.78125 1.609375 0.78125q1.203125 0 1.796875 -1.21875l0 -4.96875q-0.625 -1.1875 -1.796875 -1.1875q-1.109375 0 -1.609375 0.78125q-0.484375 0.78125 -0.484375 2.390625l0 0.984375zm11.505249 4.640625q-1.84375 0 -2.828125 -1.09375q-0.984375 -1.109375 -1.0 -3.234375l0 -1.1875q0 -2.203125 0.953125 -3.453125q0.96875 -1.25 2.6875 -1.25q1.734375 0 2.578125 1.109375q0.859375 1.09375 0.875 3.421875l0 1.046875l-5.5 0l0 0.234375q0 1.59375 0.59375 2.3125q0.609375 0.71875 1.71875 0.71875q0.71875 0 1.25 -0.265625q0.546875 -0.28125 1.03125 -0.859375l0.828125 1.015625q-1.046875 1.484375 -3.1875 1.484375zm-0.1875 -8.84375q-1.0 0 -1.484375 0.6875q-0.484375 0.6875 -0.546875 2.140625l3.875 0l0 -0.21875q-0.0625 -1.40625 -0.5 -2.0q-0.4375 -0.609375 -1.34375 -0.609375zm9.470398 0.3125q-0.34375 -0.0625 -0.734375 -0.0625q-1.234375 0 -1.734375 1.359375l0 7.046875l-1.609375 0l0 -9.859375l1.5625 0l0.03125 1.0q0.640625 -1.171875 1.828125 -1.171875q0.390625 0 0.640625 0.125l0.015625 1.5625z" fill-rule="nonzero"/><path fill="#d9d9d9" d="m628.66144 126.2126l0 0c0 -12.967819 34.604492 -23.480316 77.29132 -23.480316l0 0c42.68683 0 77.29132 10.512497 77.29132 23.480316l0 0c0 12.967819 -34.604492 23.480316 -77.29132 23.480316l0 0c-42.68683 0 -77.29132 -10.512497 -77.29132 -23.480316z" fill-rule="evenodd"/><path stroke="#999999" stroke-width="1.0" stroke-linejoin="round" stroke-linecap="butt" d="m628.66144 126.2126l0 0c0 -12.967819 34.604492 -23.480316 77.29132 -23.480316l0 0c42.68683 0 77.29132 10.512497 77.29132 23.480316l0 0c0 12.967819 -34.604492 23.480316 -77.29132 23.480316l0 0c-42.68683 0 -77.29132 -10.512497 -77.29132 -23.480316z" fill-rule="evenodd"/><path fill="#434343" d="m663.01825 123.273224l0.046875 1.0625q0.9375 -1.234375 2.40625 -1.234375q2.609375 0 2.640625 3.484375l0 6.546875l-1.59375 0l0 -6.484375q0 -1.15625 -0.390625 -1.640625q-0.390625 -0.484375 -1.15625 -0.484375q-0.609375 0 -1.09375 0.40625q-0.46875 0.390625 -0.765625 1.046875l0 7.15625l-1.609375 0l0 -9.859375l1.515625 0zm12.590027 9.859375q-0.15625 -0.3125 -0.21875 -1.078125q-0.859375 1.265625 -2.1875 1.265625q-1.328125 0 -2.09375 -0.75q-0.75 -0.765625 -0.75 -2.125q0 -1.5 1.015625 -2.375q1.03125 -0.890625 2.8125 -0.90625l1.1875 0l0 -1.046875q0 -0.890625 -0.40625 -1.265625q-0.390625 -0.375 -1.1875 -0.375q-0.734375 0 -1.1875 0.4375q-0.453125 0.4375 -0.453125 1.09375l-1.609375 0q0 -0.75 0.4375 -1.4375q0.453125 -0.6875 1.203125 -1.078125q0.765625 -0.390625 1.6875 -0.390625q1.515625 0 2.296875 0.75q0.796875 0.75 0.8125 2.1875l0 4.96875q0.015625 1.140625 0.3125 1.984375l0 0.140625l-1.671875 0zm-2.15625 -1.28125q0.59375 0 1.125 -0.328125q0.546875 -0.328125 0.796875 -0.828125l0 -2.34375l-0.921875 0q-1.140625 0.015625 -1.8125 0.515625q-0.65625 0.5 -0.65625 1.390625q0 0.828125 0.328125 1.21875q0.34375 0.375 1.140625 0.375zm7.5301514 -8.578125l0.046875 0.90625q0.890625 -1.078125 2.375 -1.078125q1.640625 0 2.296875 1.421875q0.9375 -1.421875 2.59375 -1.421875q2.71875 0 2.78125 3.390625l0 6.640625l-1.59375 0l0 -6.484375q0 -1.078125 -0.390625 -1.59375q-0.375 -0.53125 -1.296875 -0.53125q-0.71875 0 -1.1875 0.5625q-0.453125 0.5625 -0.515625 1.4375l0 6.609375l-1.625 0l0 -6.5625q-0.03125 -2.046875 -1.671875 -2.046875q-1.21875 0 -1.71875 1.21875l0 7.390625l-1.59375 0l0 -9.859375l1.5 0zm16.053406 10.046875q-1.84375 0 -2.828125 -1.09375q-0.984375 -1.109375 -1.0 -3.234375l0 -1.1875q0 -2.203125 0.953125 -3.453125q0.96875 -1.25 2.6875 -1.25q1.734375 0 2.578125 1.109375q0.859375 1.09375 0.875 3.421875l0 1.046875l-5.5 0l0 0.234375q0 1.59375 0.59375 2.3125q0.609375 0.71875 1.71875 0.71875q0.71875 0 1.25 -0.265625q0.546875 -0.28125 1.03125 -0.859375l0.828125 1.015625q-1.046875 1.484375 -3.1875 1.484375zm-0.1875 -8.84375q-1.0 0 -1.484375 0.6875q-0.484375 0.6875 -0.546875 2.140625l3.875 0l0 -0.21875q-0.0625 -1.40625 -0.5 -2.0q-0.4375 -0.609375 -1.34375 -0.609375zm11.923462 1.234375l-6.390625 0l0 -1.453125l6.390625 0l0 1.453125zm0 3.78125l-6.390625 0l0 -1.453125l6.390625 0l0 1.453125zm2.7177124 -5.890625l-0.890625 -0.65625q0.703125 -1.1875 0.734375 -2.46875l0 -1.34375l1.59375 0l0 1.234375q-0.015625 0.875 -0.40625 1.78125q-0.390625 0.890625 -1.03125 1.453125zm2.53125 0l-0.890625 -0.65625q0.703125 -1.1875 0.734375 -2.46875l0 -1.34375l1.59375 0l0 1.234375q-0.015625 0.875 -0.40625 1.78125q-0.390625 0.890625 -1.03125 1.453125zm7.5186157 7.015625q0 -0.53125 -0.40625 -0.90625q-0.390625 -0.375 -1.5 -0.875q-1.3125 -0.53125 -1.84375 -0.90625q-0.53125 -0.390625 -0.796875 -0.875q-0.265625 -0.484375 -0.265625 -1.15625q0 -1.203125 0.875 -2.0q0.890625 -0.796875 2.25 -0.796875q1.4375 0 2.3125 0.84375q0.875 0.828125 0.875 2.140625l-1.59375 0q0 -0.671875 -0.453125 -1.140625q-0.4375 -0.46875 -1.140625 -0.46875q-0.703125 0 -1.109375 0.375q-0.40625 0.359375 -0.40625 0.984375q0 0.484375 0.296875 0.796875q0.296875 0.296875 1.421875 0.78125q1.796875 0.703125 2.4375 1.375q0.65625 0.671875 0.65625 1.703125q0 1.28125 -0.890625 2.0625q-0.875 0.765625 -2.359375 0.765625q-1.546875 0 -2.5 -0.875q-0.953125 -0.890625 -0.953125 -2.25l1.609375 0q0.03125 0.8125 0.5 1.28125q0.484375 0.46875 1.34375 0.46875q0.796875 0 1.21875 -0.359375q0.421875 -0.359375 0.421875 -0.96875zm5.2178955 -7.34375l0.046875 1.0625q0.9375 -1.234375 2.40625 -1.234375q2.609375 0 2.640625 3.484375l0 6.546875l-1.59375 0l0 -6.484375q0 -1.15625 -0.390625 -1.640625q-0.390625 -0.484375 -1.15625 -0.484375q-0.609375 0 -1.09375 0.40625q-0.46875 0.390625 -0.765625 1.046875l0 7.15625l-1.609375 0l0 -9.859375l1.515625 0zm9.246277 9.859375l-1.609375 0l0 -14.0l1.609375 0l0 14.0zm4.272339 0l-1.609375 0l0 -9.859375l1.609375 0l0 9.859375zm0.125 -12.46875q0 0.40625 -0.234375 0.6875q-0.21875 0.265625 -0.671875 0.265625q-0.46875 0 -0.703125 -0.265625q-0.21875 -0.28125 -0.21875 -0.6875q0 -0.40625 0.21875 -0.6875q0.234375 -0.296875 0.6875 -0.296875q0.46875 0 0.6875 0.296875q0.234375 0.28125 0.234375 0.6875zm2.7254639 2.9375l-0.890625 -0.65625q0.703125 -1.1875 0.734375 -2.46875l0 -1.34375l1.59375 0l0 1.234375q-0.015625 0.875 -0.40625 1.78125q-0.390625 0.890625 -1.03125 1.453125zm2.53125 0l-0.890625 -0.65625q0.703125 -1.1875 0.734375 -2.46875l0 -1.34375l1.59375 0l0 1.234375q-0.015625 0.875 -0.40625 1.78125q-0.390625 0.890625 -1.03125 1.453125z" fill-rule="nonzero"/><path fill="#d9d9d9" d="m624.2677 212.52756l0 0c0 -12.967819 45.34967 -23.480316 101.29138 -23.480316l0 0c55.94165 0 101.29132 10.512497 101.29132 23.480316l0 0c0 12.967819 -45.34967 23.480316 -101.29132 23.480316l0 0c-55.94171 0 -101.29138 -10.512497 -101.29138 -23.480316z" fill-rule="evenodd"/><path stroke="#999999" stroke-width="1.0" stroke-linejoin="round" stroke-linecap="butt" d="m624.2677 212.52756l0 0c0 -12.967819 45.34967 -23.480316 101.29138 -23.480316l0 0c55.94165 0 101.29132 10.512497 101.29132 23.480316l0 0c0 12.967819 -45.34967 23.480316 -101.29132 23.480316l0 0c-55.94171 0 -101.29138 -10.512497 -101.29138 -23.480316z" fill-rule="evenodd"/><path fill="#434343" d="m665.74774 210.6038q0.921875 -1.1875 2.359375 -1.1875q2.609375 0 2.640625 3.484375l0 6.546875l-1.59375 0l0 -6.484375q0 -1.15625 -0.390625 -1.640625q-0.390625 -0.484375 -1.15625 -0.484375q-0.609375 0 -1.09375 0.40625q-0.46875 0.390625 -0.765625 1.046875l0 7.15625l-1.609375 0l0 -14.0l1.609375 0l0 5.15625zm9.134338 8.84375l-1.609375 0l0 -9.859375l1.609375 0l0 9.859375zm0.125 -12.46875q0 0.40625 -0.234375 0.6875q-0.21875 0.265625 -0.671875 0.265625q-0.46875 0 -0.703125 -0.265625q-0.21875 -0.28125 -0.21875 -0.6875q0 -0.40625 0.21875 -0.6875q0.234375 -0.296875 0.6875 -0.296875q0.46875 0 0.6875 0.296875q0.234375 0.28125 0.234375 0.6875zm2.0692139 7.09375q0 -2.28125 0.84375 -3.46875q0.859375 -1.1875 2.453125 -1.1875q1.421875 0 2.21875 1.140625l0 -5.109375l1.609375 0l0 14.0l-1.484375 0l-0.078125 -1.0625q-0.796875 1.25 -2.265625 1.25q-1.53125 0 -2.40625 -1.1875q-0.859375 -1.203125 -0.890625 -3.359375l0 -1.015625zm1.625 0.921875q0 1.65625 0.484375 2.4375q0.5 0.78125 1.609375 0.78125q1.203125 0 1.796875 -1.21875l0 -4.96875q-0.625 -1.1875 -1.796875 -1.1875q-1.109375 0 -1.609375 0.78125q-0.484375 0.78125 -0.484375 2.390625l0 0.984375zm7.630249 -0.921875q0 -2.28125 0.84375 -3.46875q0.859375 -1.1875 2.453125 -1.1875q1.421875 0 2.21875 1.140625l0 -5.109375l1.609375 0l0 14.0l-1.484375 0l-0.078125 -1.0625q-0.796875 1.25 -2.265625 1.25q-1.53125 0 -2.40625 -1.1875q-0.859375 -1.203125 -0.890625 -3.359375l0 -1.015625zm1.625 0.921875q0 1.65625 0.484375 2.4375q0.5 0.78125 1.609375 0.78125q1.203125 0 1.796875 -1.21875l0 -4.96875q-0.625 -1.1875 -1.796875 -1.1875q-1.109375 0 -1.609375 0.78125q-0.484375 0.78125 -0.484375 2.390625l0 0.984375zm11.505249 4.640625q-1.84375 0 -2.828125 -1.09375q-0.984375 -1.109375 -1.0 -3.234375l0 -1.1875q0 -2.203125 0.953125 -3.453125q0.96875 -1.25 2.6875 -1.25q1.734375 0 2.578125 1.109375q0.859375 1.09375 0.875 3.421875l0 1.046875l-5.5 0l0 0.234375q0 1.59375 0.59375 2.3125q0.609375 0.71875 1.71875 0.71875q0.71875 0 1.25 -0.265625q0.546875 -0.28125 1.03125 -0.859375l0.828125 1.015625q-1.046875 1.484375 -3.1875 1.484375zm-0.1875 -8.84375q-1.0 0 -1.484375 0.6875q-0.484375 0.6875 -0.546875 2.140625l3.875 0l0 -0.21875q-0.0625 -1.40625 -0.5 -2.0q-0.4375 -0.609375 -1.34375 -0.609375zm6.907898 -1.203125l0.046875 1.0625q0.9375 -1.234375 2.40625 -1.234375q2.609375 0 2.640625 3.484375l0 6.546875l-1.59375 0l0 -6.484375q0 -1.15625 -0.390625 -1.640625q-0.390625 -0.484375 -1.15625 -0.484375q-0.609375 0 -1.09375 0.40625q-0.46875 0.390625 -0.765625 1.046875l0 7.15625l-1.609375 0l0 -9.859375l1.515625 0zm13.636841 11.234375l-7.109375 0l0 -1.375l7.109375 0l0 1.375zm6.223694 -3.890625q0 -0.53125 -0.40625 -0.90625q-0.390625 -0.375 -1.5 -0.875q-1.3125 -0.53125 -1.84375 -0.90625q-0.53125 -0.390625 -0.796875 -0.875q-0.265625 -0.484375 -0.265625 -1.15625q0 -1.203125 0.875 -2.0q0.890625 -0.796875 2.25 -0.796875q1.4375 0 2.3125 0.84375q0.875 0.828125 0.875 2.140625l-1.59375 0q0 -0.671875 -0.453125 -1.140625q-0.4375 -0.46875 -1.140625 -0.46875q-0.703125 0 -1.109375 0.375q-0.40625 0.359375 -0.40625 0.984375q0 0.484375 0.296875 0.796875q0.296875 0.296875 1.421875 0.78125q1.796875 0.703125 2.4375 1.375q0.65625 0.671875 0.65625 1.703125q0 1.28125 -0.890625 2.0625q-0.875 0.765625 -2.359375 0.765625q-1.546875 0 -2.5 -0.875q-0.953125 -0.890625 -0.953125 -2.25l1.609375 0q0.03125 0.8125 0.5 1.28125q0.484375 0.46875 1.34375 0.46875q0.796875 0 1.21875 -0.359375q0.421875 -0.359375 0.421875 -0.96875zm5.4366455 2.515625l-1.609375 0l0 -9.859375l1.609375 0l0 9.859375zm0.125 -12.46875q0 0.40625 -0.234375 0.6875q-0.21875 0.265625 -0.671875 0.265625q-0.46875 0 -0.703125 -0.265625q-0.21875 -0.28125 -0.21875 -0.6875q0 -0.40625 0.21875 -0.6875q0.234375 -0.296875 0.6875 -0.296875q0.46875 0 0.6875 0.296875q0.234375 0.28125 0.234375 0.6875zm3.9129639 11.09375l4.75 0l0 1.375l-6.59375 0l0 -1.234375l4.515625 -7.234375l-4.484375 0l0 -1.390625l6.375 0l0 1.203125l-4.5625 7.28125zm10.07489 1.5625q-1.84375 0 -2.828125 -1.09375q-0.984375 -1.109375 -1.0 -3.234375l0 -1.1875q0 -2.203125 0.953125 -3.453125q0.96875 -1.25 2.6875 -1.25q1.734375 0 2.578125 1.109375q0.859375 1.09375 0.875 3.421875l0 1.046875l-5.5 0l0 0.234375q0 1.59375 0.59375 2.3125q0.609375 0.71875 1.71875 0.71875q0.71875 0 1.25 -0.265625q0.546875 -0.28125 1.03125 -0.859375l0.828125 1.015625q-1.046875 1.484375 -3.1875 1.484375zm-0.1875 -8.84375q-1.0 0 -1.484375 0.6875q-0.484375 0.6875 -0.546875 2.140625l3.875 0l0 -0.21875q-0.0625 -1.40625 -0.5 -2.0q-0.4375 -0.609375 -1.34375 -0.609375zm11.923462 1.234375l-6.390625 0l0 -1.453125l6.390625 0l0 1.453125zm0 3.78125l-6.390625 0l0 -1.453125l6.390625 0l0 1.453125zm9.577087 -8.671875l-4.5625 12.3125l-1.6875 0l4.5625 -11.875l-5.90625 0l0 -1.390625l7.59375 0l0 0.953125zm7.506531 -0.953125l0 1.421875l-0.265625 0q-1.609375 0.03125 -2.515625 1.09375q-0.90625 1.046875 -1.046875 3.15625q0.875 -1.109375 2.25 -1.109375q1.46875 0 2.328125 1.21875q0.875 1.203125 0.875 3.15625q0 2.09375 -0.953125 3.3125q-0.953125 1.203125 -2.5625 1.203125q-1.609375 0 -2.59375 -1.421875q-0.984375 -1.4375 -0.984375 -3.8125l0 -0.640625q0 -2.734375 0.59375 -4.359375q0.59375 -1.625 1.734375 -2.40625q1.15625 -0.796875 2.875 -0.8125l0.265625 0zm-1.84375 5.96875q-0.65625 0 -1.21875 0.5q-0.546875 0.5 -0.796875 1.28125l0 0.65625q0 1.609375 0.5625 2.625q0.578125 1.015625 1.40625 1.015625q0.90625 0 1.40625 -0.828125q0.515625 -0.828125 0.515625 -2.203125q0 -1.34375 -0.515625 -2.1875q-0.5 -0.859375 -1.359375 -0.859375zm12.272217 -2.5q0 0.984375 -0.453125 1.765625q-0.4375 0.765625 -1.171875 1.203125q0.875 0.453125 1.375 1.3125q0.5 0.84375 0.5 1.9375q0 1.703125 -0.96875 2.734375q-0.96875 1.03125 -2.578125 1.03125q-1.59375 0 -2.5625 -1.03125q-0.96875 -1.03125 -0.96875 -2.734375q0 -1.09375 0.484375 -1.953125q0.5 -0.859375 1.359375 -1.296875q-0.75 -0.4375 -1.1875 -1.203125q-0.421875 -0.78125 -0.421875 -1.765625q0 -1.6875 0.90625 -2.671875q0.90625 -0.984375 2.390625 -0.984375q1.484375 0 2.390625 0.984375q0.90625 0.96875 0.90625 2.671875zm-1.359375 6.1875q0 -1.140625 -0.546875 -1.828125q-0.53125 -0.6875 -1.40625 -0.6875q-0.890625 0 -1.40625 0.6875q-0.515625 0.6875 -0.515625 1.828125q0 1.140625 0.5 1.78125q0.515625 0.640625 1.4375 0.640625q0.9375 0 1.4375 -0.640625q0.5 -0.640625 0.5 -1.78125zm-0.25 -6.171875q0 -1.0 -0.46875 -1.640625q-0.46875 -0.640625 -1.21875 -0.640625q-0.765625 0 -1.21875 0.640625q-0.453125 0.625 -0.453125 1.640625q0 1.046875 0.453125 1.65625q0.46875 0.609375 1.21875 0.609375q0.78125 0 1.234375 -0.609375q0.453125 -0.625 0.453125 -1.65625z" fill-rule="nonzero"/><path fill="#d9ead3" d="m466.61417 250.71129l208.85037 0l0 48.12599l-208.85037 0z" fill-rule="evenodd"/><path stroke="#38761d" stroke-width="1.0" stroke-linejoin="round" stroke-linecap="butt" d="m466.61417 250.71129l208.85037 0l0 48.12599l-208.85037 0z" fill-rule="evenodd"/><path fill="#434343" d="m485.36417 277.49115q-0.109375 2.125 -1.203125 3.265625q-1.09375 1.125 -3.078125 1.125q-1.984375 0 -3.171875 -1.515625q-1.171875 -1.515625 -1.171875 -4.125l0 -2.40625q0 -2.578125 1.203125 -4.078125q1.21875 -1.515625 3.296875 -1.515625q1.921875 0 2.96875 1.15625q1.0625 1.15625 1.15625 3.296875l-1.6875 0q-0.109375 -1.625 -0.6875 -2.3125q-0.5625 -0.6875 -1.75 -0.6875q-1.359375 0 -2.09375 1.0625q-0.71875 1.046875 -0.71875 3.109375l0 2.421875q0 2.015625 0.671875 3.09375q0.6875 1.078125 1.984375 1.078125q1.3125 0 1.875 -0.640625q0.578125 -0.65625 0.71875 -2.328125l1.6875 0zm7.1073914 4.203125q-0.15625 -0.3125 -0.21875 -1.078125q-0.859375 1.265625 -2.1875 1.265625q-1.328125 0 -2.09375 -0.75q-0.75 -0.765625 -0.75 -2.125q0 -1.5 1.015625 -2.375q1.03125 -0.890625 2.8125 -0.90625l1.1875 0l0 -1.046875q0 -0.890625 -0.40625 -1.265625q-0.390625 -0.375 -1.1875 -0.375q-0.734375 0 -1.1875 0.4375q-0.453125 0.4375 -0.453125 1.09375l-1.609375 0q0 -0.75 0.4375 -1.4375q0.453125 -0.6875 1.203125 -1.078125q0.765625 -0.390625 1.6875 -0.390625q1.515625 0 2.296875 0.75q0.796875 0.75 0.8125 2.1875l0 4.96875q0.015625 1.140625 0.3125 1.984375l0 0.140625l-1.671875 0zm-2.15625 -1.28125q0.59375 0 1.125 -0.328125q0.546875 -0.328125 0.796875 -0.828125l0 -2.34375l-0.921875 0q-1.140625 0.015625 -1.8125 0.515625q-0.65625 0.5 -0.65625 1.390625q0 0.828125 0.328125 1.21875q0.34375 0.375 1.140625 0.375zm8.123901 -10.96875l0 2.390625l1.484375 0l0 1.3125l-1.484375 0l0 6.109375q0 0.578125 0.1875 0.890625q0.203125 0.296875 0.65625 0.296875q0.328125 0 0.65625 -0.109375l-0.015625 1.359375q-0.546875 0.1875 -1.125 0.1875q-0.953125 0 -1.453125 -0.6875q-0.5 -0.6875 -0.5 -1.9375l0 -6.109375l-1.515625 0l0 -1.3125l1.515625 0l0 -2.390625l1.59375 0zm6.933136 12.4375q-1.84375 0 -2.828125 -1.09375q-0.984375 -1.109375 -1.0 -3.234375l0 -1.1875q0 -2.203125 0.953125 -3.453125q0.96875 -1.25 2.6875 -1.25q1.734375 0 2.578125 1.109375q0.859375 1.09375 0.875 3.421875l0 1.046875l-5.5 0l0 0.234375q0 1.59375 0.59375 2.3125q0.609375 0.71875 1.71875 0.71875q0.71875 0 1.25 -0.265625q0.546875 -0.28125 1.03125 -0.859375l0.828125 1.015625q-1.046875 1.484375 -3.1875 1.484375zm-0.1875 -8.84375q-1.0 0 -1.484375 0.6875q-0.484375 0.6875 -0.546875 2.140625l3.875 0l0 -0.21875q-0.0625 -1.40625 -0.5 -2.0q-0.4375 -0.609375 -1.34375 -0.609375zm5.0797424 3.28125q0 -2.296875 0.828125 -3.46875q0.84375 -1.1875 2.453125 -1.1875q1.5 0 2.28125 1.28125l0.09375 -1.109375l1.453125 0l0 9.953125q0 1.828125 -0.9375 2.796875q-0.9375 0.984375 -2.609375 0.984375q-0.734375 0 -1.640625 -0.359375q-0.90625 -0.359375 -1.359375 -0.890625l0.65625 -1.109375q1.0 0.984375 2.203125 0.984375q2.015625 0 2.078125 -2.1875l0 -1.28125q-0.78125 1.15625 -2.234375 1.15625q-1.53125 0 -2.390625 -1.15625q-0.84375 -1.15625 -0.875 -3.3125l0 -1.09375zm1.609375 0.921875q0 1.65625 0.484375 2.4375q0.484375 0.78125 1.59375 0.78125q1.203125 0 1.8125 -1.234375l0 -4.921875q-0.640625 -1.21875 -1.796875 -1.21875q-1.109375 0 -1.609375 0.78125q-0.484375 0.78125 -0.484375 2.390625l0 0.984375zm7.5508423 -0.9375q0 -2.140625 1.046875 -3.390625q1.046875 -1.25 2.75 -1.25q1.71875 0 2.765625 1.21875q1.046875 1.21875 1.0625 3.3125l0 1.046875q0 2.140625 -1.046875 3.390625q-1.03125 1.25 -2.75 1.25q-1.71875 0 -2.75 -1.203125q-1.03125 -1.21875 -1.078125 -3.296875l0 -1.078125zm1.625 0.9375q0 1.515625 0.59375 2.390625q0.59375 0.875 1.609375 0.875q2.125 0 2.1875 -3.078125l0 -1.125q0 -1.5 -0.609375 -2.375q-0.59375 -0.890625 -1.59375 -0.890625q-1.0 0 -1.59375 0.890625q-0.59375 0.875 -0.59375 2.375l0 0.9375zm12.161438 -3.890625q-0.34375 -0.0625 -0.734375 -0.0625q-1.234375 0 -1.734375 1.359375l0 7.046875l-1.609375 0l0 -9.859375l1.5625 0l0.03125 1.0q0.640625 -1.171875 1.828125 -1.171875q0.390625 0 0.640625 0.125l0.015625 1.5625zm3.331482 8.34375l-1.609375 0l0 -9.859375l1.609375 0l0 9.859375zm0.125 -12.46875q0 0.40625 -0.234375 0.6875q-0.21875 0.265625 -0.671875 0.265625q-0.46875 0 -0.703125 -0.265625q-0.21875 -0.28125 -0.21875 -0.6875q0 -0.40625 0.21875 -0.6875q0.234375 -0.296875 0.6875 -0.296875q0.46875 0 0.6875 0.296875q0.234375 0.28125 0.234375 0.6875zm5.834839 11.28125q0.796875 0 1.28125 -0.5q0.484375 -0.5 0.53125 -1.421875l1.53125 0q-0.0625 1.421875 -1.015625 2.359375q-0.953125 0.9375 -2.328125 0.9375q-1.828125 0 -2.796875 -1.15625q-0.953125 -1.15625 -0.953125 -3.4375l0 -1.078125q0 -2.234375 0.953125 -3.390625q0.953125 -1.15625 2.796875 -1.15625q1.5 0 2.390625 0.953125q0.890625 0.953125 0.953125 2.609375l-1.53125 0q-0.046875 -1.09375 -0.515625 -1.640625q-0.46875 -0.546875 -1.296875 -0.546875q-1.078125 0 -1.609375 0.71875q-0.515625 0.703125 -0.53125 2.3125l0 1.25q0 1.75 0.515625 2.46875q0.515625 0.71875 1.625 0.71875zm10.273865 1.1875q-0.15625 -0.3125 -0.21875 -1.078125q-0.859375 1.265625 -2.1875 1.265625q-1.328125 0 -2.09375 -0.75q-0.75 -0.765625 -0.75 -2.125q0 -1.5 1.015625 -2.375q1.03125 -0.890625 2.8125 -0.90625l1.1875 0l0 -1.046875q0 -0.890625 -0.40625 -1.265625q-0.390625 -0.375 -1.1875 -0.375q-0.734375 0 -1.1875 0.4375q-0.453125 0.4375 -0.453125 1.09375l-1.609375 0q0 -0.75 0.4375 -1.4375q0.453125 -0.6875 1.203125 -1.078125q0.765625 -0.390625 1.6875 -0.390625q1.515625 0 2.296875 0.75q0.796875 0.75 0.8125 2.1875l0 4.96875q0.015625 1.140625 0.3125 1.984375l0 0.140625l-1.671875 0zm-2.15625 -1.28125q0.59375 0 1.125 -0.328125q0.546875 -0.328125 0.796875 -0.828125l0 -2.34375l-0.921875 0q-1.140625 0.015625 -1.8125 0.515625q-0.65625 0.5 -0.65625 1.390625q0 0.828125 0.328125 1.21875q0.34375 0.375 1.140625 0.375zm7.7489014 1.28125l-1.609375 0l0 -14.0l1.609375 0l0 14.0zm11.084839 -4.203125q-0.109375 2.125 -1.203125 3.265625q-1.09375 1.125 -3.078125 1.125q-1.984375 0 -3.171875 -1.515625q-1.171875 -1.515625 -1.171875 -4.125l0 -2.40625q0 -2.578125 1.203125 -4.078125q1.21875 -1.515625 3.296875 -1.515625q1.921875 0 2.96875 1.15625q1.0625 1.15625 1.15625 3.296875l-1.6875 0q-0.109375 -1.625 -0.6875 -2.3125q-0.5625 -0.6875 -1.75 -0.6875q-1.359375 0 -2.09375 1.0625q-0.71875 1.046875 -0.71875 3.109375l0 2.421875q0 2.015625 0.671875 3.09375q0.6875 1.078125 1.984375 1.078125q1.3125 0 1.875 -0.640625q0.578125 -0.65625 0.71875 -2.328125l1.6875 0zm6.107422 -4.140625q-0.34375 -0.0625 -0.734375 -0.0625q-1.234375 0 -1.734375 1.359375l0 7.046875l-1.609375 0l0 -9.859375l1.5625 0l0.03125 1.0q0.640625 -1.171875 1.828125 -1.171875q0.390625 0 0.640625 0.125l0.015625 1.5625zm1.0710449 2.953125q0 -2.140625 1.046875 -3.390625q1.046875 -1.25 2.75 -1.25q1.71875 0 2.765625 1.21875q1.046875 1.21875 1.0625 3.3125l0 1.046875q0 2.140625 -1.046875 3.390625q-1.03125 1.25 -2.75 1.25q-1.71875 0 -2.75 -1.203125q-1.03125 -1.21875 -1.078125 -3.296875l0 -1.078125zm1.625 0.9375q0 1.515625 0.59375 2.390625q0.59375 0.875 1.609375 0.875q2.125 0 2.1875 -3.078125l0 -1.125q0 -1.5 -0.609375 -2.375q-0.59375 -0.890625 -1.59375 -0.890625q-1.0 0 -1.59375 0.890625q-0.59375 0.875 -0.59375 2.375l0 0.9375zm12.880188 1.9375q0 -0.53125 -0.40625 -0.90625q-0.390625 -0.375 -1.5 -0.875q-1.3125 -0.53125 -1.84375 -0.90625q-0.53125 -0.390625 -0.796875 -0.875q-0.265625 -0.484375 -0.265625 -1.15625q0 -1.203125 0.875 -2.0q0.890625 -0.796875 2.25 -0.796875q1.4375 0 2.3125 0.84375q0.875 0.828125 0.875 2.140625l-1.59375 0q0 -0.671875 -0.453125 -1.140625q-0.4375 -0.46875 -1.140625 -0.46875q-0.703125 0 -1.109375 0.375q-0.40625 0.359375 -0.40625 0.984375q0 0.484375 0.296875 0.796875q0.296875 0.296875 1.421875 0.78125q1.796875 0.703125 2.4375 1.375q0.65625 0.671875 0.65625 1.703125q0 1.28125 -0.890625 2.0625q-0.875 0.765625 -2.359375 0.765625q-1.546875 0 -2.5 -0.875q-0.953125 -0.890625 -0.953125 -2.25l1.609375 0q0.03125 0.8125 0.5 1.28125q0.484375 0.46875 1.34375 0.46875q0.796875 0 1.21875 -0.359375q0.421875 -0.359375 0.421875 -0.96875zm8.4991455 0q0 -0.53125 -0.40625 -0.90625q-0.390625 -0.375 -1.5 -0.875q-1.3125 -0.53125 -1.84375 -0.90625q-0.53125 -0.390625 -0.796875 -0.875q-0.265625 -0.484375 -0.265625 -1.15625q0 -1.203125 0.875 -2.0q0.890625 -0.796875 2.25 -0.796875q1.4375 0 2.3125 0.84375q0.875 0.828125 0.875 2.140625l-1.59375 0q0 -0.671875 -0.453125 -1.140625q-0.4375 -0.46875 -1.140625 -0.46875q-0.703125 0 -1.109375 0.375q-0.40625 0.359375 -0.40625 0.984375q0 0.484375 0.296875 0.796875q0.296875 0.296875 1.421875 0.78125q1.796875 0.703125 2.4375 1.375q0.65625 0.671875 0.65625 1.703125q0 1.28125 -0.890625 2.0625q-0.875 0.765625 -2.359375 0.765625q-1.546875 0 -2.5 -0.875q-0.953125 -0.890625 -0.953125 -2.25l1.609375 0q0.03125 0.8125 0.5 1.28125q0.484375 0.46875 1.34375 0.46875q0.796875 0 1.21875 -0.359375q0.421875 -0.359375 0.421875 -0.96875zm7.2335205 2.703125q-1.84375 0 -2.828125 -1.09375q-0.984375 -1.109375 -1.0 -3.234375l0 -1.1875q0 -2.203125 0.953125 -3.453125q0.96875 -1.25 2.6875 -1.25q1.734375 0 2.578125 1.109375q0.859375 1.09375 0.875 3.421875l0 1.046875l-5.5 0l0 0.234375q0 1.59375 0.59375 2.3125q0.609375 0.71875 1.71875 0.71875q0.71875 0 1.25 -0.265625q0.546875 -0.28125 1.03125 -0.859375l0.828125 1.015625q-1.046875 1.484375 -3.1875 1.484375zm-0.1875 -8.84375q-1.0 0 -1.484375 0.6875q-0.484375 0.6875 -0.546875 2.140625l3.875 0l0 -0.21875q-0.0625 -1.40625 -0.5 -2.0q-0.4375 -0.609375 -1.34375 -0.609375zm6.907898 -1.203125l0.046875 1.0625q0.9375 -1.234375 2.40625 -1.234375q2.609375 0 2.640625 3.484375l0 6.546875l-1.59375 0l0 -6.484375q0 -1.15625 -0.390625 -1.640625q-0.390625 -0.484375 -1.15625 -0.484375q-0.609375 0 -1.09375 0.40625q-0.46875 0.390625 -0.765625 1.046875l0 7.15625l-1.609375 0l0 -9.859375l1.515625 0zm9.621277 -2.390625l0 2.390625l1.484375 0l0 1.3125l-1.484375 0l0 6.109375q0 0.578125 0.1875 0.890625q0.203125 0.296875 0.65625 0.296875q0.328125 0 0.65625 -0.109375l-0.015625 1.359375q-0.546875 0.1875 -1.125 0.1875q-0.953125 0 -1.453125 -0.6875q-0.5 -0.6875 -0.5 -1.9375l0 -6.109375l-1.515625 0l0 -1.3125l1.515625 0l0 -2.390625l1.59375 0zm7.4799805 3.90625q-0.34375 -0.0625 -0.734375 -0.0625q-1.234375 0 -1.734375 1.359375l0 7.046875l-1.609375 0l0 -9.859375l1.5625 0l0.03125 1.0q0.640625 -1.171875 1.828125 -1.171875q0.390625 0 0.640625 0.125l0.015625 1.5625zm1.0710449 2.953125q0 -2.140625 1.046875 -3.390625q1.046875 -1.25 2.75 -1.25q1.71875 0 2.765625 1.21875q1.046875 1.21875 1.0625 3.3125l0 1.046875q0 2.140625 -1.046875 3.390625q-1.03125 1.25 -2.75 1.25q-1.71875 0 -2.75 -1.203125q-1.03125 -1.21875 -1.078125 -3.296875l0 -1.078125zm1.625 0.9375q0 1.515625 0.59375 2.390625q0.59375 0.875 1.609375 0.875q2.125 0 2.1875 -3.078125l0 -1.125q0 -1.5 -0.609375 -2.375q-0.59375 -0.890625 -1.59375 -0.890625q-1.0 0 -1.59375 0.890625q-0.59375 0.875 -0.59375 2.375l0 0.9375zm15.208313 0q0 2.34375 -0.84375 3.5q-0.84375 1.140625 -2.390625 1.140625q-1.484375 0 -2.28125 -1.125l0 4.734375l-1.59375 0l0 -13.65625l1.453125 0l0.078125 1.09375q0.8125 -1.265625 2.328125 -1.265625q1.625 0 2.421875 1.125q0.796875 1.125 0.828125 3.375l0 1.078125zm-1.609375 -0.921875q0 -1.65625 -0.515625 -2.4375q-0.5 -0.796875 -1.625 -0.796875q-1.15625 0 -1.765625 1.15625l0 5.125q0.59375 1.140625 1.78125 1.140625q1.09375 0 1.609375 -0.78125q0.515625 -0.796875 0.515625 -2.421875l0 -0.984375zm6.287842 2.703125l1.78125 -7.1875l1.71875 0l-3.21875 11.25q-0.375 1.265625 -1.046875 1.921875q-0.65625 0.671875 -1.5 0.671875q-0.328125 0 -0.84375 -0.15625l0 -1.359375l0.359375 0.03125q0.703125 0 1.09375 -0.328125q0.40625 -0.328125 0.640625 -1.15625l0.328125 -1.09375l-2.90625 -9.78125l1.765625 0l1.828125 7.1875z" fill-rule="nonzero"/><path fill="#d9d9d9" d="m721.3202 274.7743l0 0c0 -12.967834 46.752747 -23.480331 104.42523 -23.480331l0 0c57.672424 0 104.42517 10.512497 104.42517 23.480331l0 0c0 12.967804 -46.752747 23.480316 -104.42517 23.480316l0 0c-57.672485 0 -104.42523 -10.512512 -104.42523 -23.480316z" fill-rule="evenodd"/><path stroke="#999999" stroke-width="1.0" stroke-linejoin="round" stroke-linecap="butt" d="m721.3202 274.7743l0 0c0 -12.967834 46.752747 -23.480331 104.42523 -23.480331l0 0c57.672424 0 104.42517 10.512497 104.42517 23.480331l0 0c0 12.967804 -46.752747 23.480316 -104.42517 23.480316l0 0c-57.672485 0 -104.42523 -10.512512 -104.42523 -23.480316z" fill-rule="evenodd"/><path fill="#434343" d="m762.8119 281.69427l0 -8.546875l-1.28125 0l0 -1.3125l1.28125 0l0 -1.140625q0.03125 -1.5 0.765625 -2.34375q0.734375 -0.84375 2.078125 -0.84375q0.484375 0 0.96875 0.15625l-0.078125 1.375q-0.34375 -0.09375 -0.734375 -0.09375q-1.375 0 -1.375 1.96875l0 0.921875l1.671875 0l0 1.3125l-1.671875 0l0 8.546875l-1.625 0zm9.277954 -8.34375q-0.34375 -0.0625 -0.734375 -0.0625q-1.234375 0 -1.734375 1.359375l0 7.046875l-1.609375 0l0 -9.859375l1.5625 0l0.03125 1.0q0.640625 -1.171875 1.828125 -1.171875q0.390625 0 0.640625 0.125l0.015625 1.5625zm1.0710449 2.953125q0 -2.140625 1.046875 -3.390625q1.046875 -1.25 2.75 -1.25q1.71875 0 2.765625 1.21875q1.046875 1.21875 1.0625 3.3125l0 1.046875q0 2.140625 -1.046875 3.390625q-1.03125 1.25 -2.75 1.25q-1.71875 0 -2.75 -1.203125q-1.03125 -1.21875 -1.078125 -3.296875l0 -1.078125zm1.625 0.9375q0 1.515625 0.59375 2.390625q0.59375 0.875 1.609375 0.875q2.125 0 2.1875 -3.078125l0 -1.125q0 -1.5 -0.609375 -2.375q-0.59375 -0.890625 -1.59375 -0.890625q-1.0 0 -1.59375 0.890625q-0.59375 0.875 -0.59375 2.375l0 0.9375zm9.598938 -5.40625l0.046875 0.90625q0.890625 -1.078125 2.375 -1.078125q1.640625 0 2.296875 1.421875q0.9375 -1.421875 2.59375 -1.421875q2.71875 0 2.78125 3.390625l0 6.640625l-1.59375 0l0 -6.484375q0 -1.078125 -0.390625 -1.59375q-0.375 -0.53125 -1.296875 -0.53125q-0.71875 0 -1.1875 0.5625q-0.453125 0.5625 -0.515625 1.4375l0 6.609375l-1.625 0l0 -6.5625q-0.03125 -2.046875 -1.671875 -2.046875q-1.21875 0 -1.71875 1.21875l0 7.390625l-1.59375 0l0 -9.859375l1.5 0zm18.647095 11.234375l-7.109375 0l0 -1.375l7.109375 0l0 1.375zm3.1611938 -1.375l-1.609375 0l0 -14.0l1.609375 0l0 14.0zm2.1942139 -5.390625q0 -2.140625 1.046875 -3.390625q1.046875 -1.25 2.75 -1.25q1.71875 0 2.765625 1.21875q1.046875 1.21875 1.0625 3.3125l0 1.046875q0 2.140625 -1.046875 3.390625q-1.03125 1.25 -2.75 1.25q-1.71875 0 -2.75 -1.203125q-1.03125 -1.21875 -1.078125 -3.296875l0 -1.078125zm1.625 0.9375q0 1.515625 0.59375 2.390625q0.59375 0.875 1.609375 0.875q2.125 0 2.1875 -3.078125l0 -1.125q0 -1.5 -0.609375 -2.375q-0.59375 -0.890625 -1.59375 -0.890625q-1.0 0 -1.59375 0.890625q-0.59375 0.875 -0.59375 2.375l0 0.9375zm7.770813 -0.921875q0 -2.296875 0.828125 -3.46875q0.84375 -1.1875 2.453125 -1.1875q1.5 0 2.28125 1.28125l0.09375 -1.109375l1.453125 0l0 9.953125q0 1.828125 -0.9375 2.796875q-0.9375 0.984375 -2.609375 0.984375q-0.734375 0 -1.640625 -0.359375q-0.90625 -0.359375 -1.359375 -0.890625l0.65625 -1.109375q1.0 0.984375 2.203125 0.984375q2.015625 0 2.078125 -2.1875l0 -1.28125q-0.78125 1.15625 -2.234375 1.15625q-1.53125 0 -2.390625 -1.15625q-0.84375 -1.15625 -0.875 -3.3125l0 -1.09375zm1.609375 0.921875q0 1.65625 0.484375 2.4375q0.484375 0.78125 1.59375 0.78125q1.203125 0 1.8125 -1.234375l0 -4.921875q-0.640625 -1.21875 -1.796875 -1.21875q-1.109375 0 -1.609375 0.78125q-0.484375 0.78125 -0.484375 2.390625l0 0.984375zm9.628967 4.453125l-1.609375 0l0 -9.859375l1.609375 0l0 9.859375zm0.125 -12.46875q0 0.40625 -0.234375 0.6875q-0.21875 0.265625 -0.671875 0.265625q-0.46875 0 -0.703125 -0.265625q-0.21875 -0.28125 -0.21875 -0.6875q0 -0.40625 0.21875 -0.6875q0.234375 -0.296875 0.6875 -0.296875q0.46875 0 0.6875 0.296875q0.234375 0.28125 0.234375 0.6875zm4.522339 0.21875l0 2.390625l1.484375 0l0 1.3125l-1.484375 0l0 6.109375q0 0.578125 0.1875 0.890625q0.203125 0.296875 0.65625 0.296875q0.328125 0 0.65625 -0.109375l-0.015625 1.359375q-0.546875 0.1875 -1.125 0.1875q-0.953125 0 -1.453125 -0.6875q-0.5 -0.6875 -0.5 -1.9375l0 -6.109375l-1.515625 0l0 -1.3125l1.515625 0l0 -2.390625l1.59375 0zm8.1987915 9.734375q0 -0.53125 -0.40625 -0.90625q-0.390625 -0.375 -1.5 -0.875q-1.3125 -0.53125 -1.84375 -0.90625q-0.53125 -0.390625 -0.796875 -0.875q-0.265625 -0.484375 -0.265625 -1.15625q0 -1.203125 0.875 -2.0q0.890625 -0.796875 2.25 -0.796875q1.4375 0 2.3125 0.84375q0.875 0.828125 0.875 2.140625l-1.59375 0q0 -0.671875 -0.453125 -1.140625q-0.4375 -0.46875 -1.140625 -0.46875q-0.703125 0 -1.109375 0.375q-0.40625 0.359375 -0.40625 0.984375q0 0.484375 0.296875 0.796875q0.296875 0.296875 1.421875 0.78125q1.796875 0.703125 2.4375 1.375q0.65625 0.671875 0.65625 1.703125q0 1.28125 -0.890625 2.0625q-0.875 0.765625 -2.359375 0.765625q-1.546875 0 -2.5 -0.875q-0.953125 -0.890625 -0.953125 -2.25l1.609375 0q0.03125 0.8125 0.5 1.28125q0.484375 0.46875 1.34375 0.46875q0.796875 0 1.21875 -0.359375q0.421875 -0.359375 0.421875 -0.96875zm10.2335205 -4.90625l-6.390625 0l0 -1.453125l6.390625 0l0 1.453125zm0 3.78125l-6.390625 0l0 -1.453125l6.390625 0l0 1.453125zm10.389526 -8.1875l-3.5 0l0 11.828125l-1.65625 0l0 -11.828125l-3.484375 0l0 -1.4375l8.640625 0l0 1.4375zm5.1209106 3.484375q-0.34375 -0.0625 -0.734375 -0.0625q-1.234375 0 -1.734375 1.359375l0 7.046875l-1.609375 0l0 -9.859375l1.5625 0l0.03125 1.0q0.640625 -1.171875 1.828125 -1.171875q0.390625 0 0.640625 0.125l0.015625 1.5625zm6.628296 7.484375q-0.8125 1.046875 -2.34375 1.046875q-1.34375 0 -2.03125 -0.921875q-0.671875 -0.9375 -0.6875 -2.703125l0 -6.421875l1.609375 0l0 6.3125q0 2.296875 1.375 2.296875q1.46875 0 2.03125 -1.3125l0 -7.296875l1.609375 0l0 9.859375l-1.53125 0l-0.03125 -0.859375zm7.5184326 1.046875q-1.84375 0 -2.828125 -1.09375q-0.984375 -1.109375 -1.0 -3.234375l0 -1.1875q0 -2.203125 0.953125 -3.453125q0.96875 -1.25 2.6875 -1.25q1.734375 0 2.578125 1.109375q0.859375 1.09375 0.875 3.421875l0 1.046875l-5.5 0l0 0.234375q0 1.59375 0.59375 2.3125q0.609375 0.71875 1.71875 0.71875q0.71875 0 1.25 -0.265625q0.546875 -0.28125 1.03125 -0.859375l0.828125 1.015625q-1.046875 1.484375 -3.1875 1.484375zm-0.1875 -8.84375q-1.0 0 -1.484375 0.6875q-0.484375 0.6875 -0.546875 2.140625l3.875 0l0 -0.21875q-0.0625 -1.40625 -0.5 -2.0q-0.4375 -0.609375 -1.34375 -0.609375z" fill-rule="nonzero"/><path fill="#000000" fill-opacity="0.0" d="m427.1181 87.944885c0 31.165352 19.748047 62.330704 39.496063 62.330704" fill-rule="evenodd"/><path stroke="#000000" stroke-width="1.0" stroke-linejoin="round" stroke-linecap="butt" d="m427.1181 87.944885c0 15.582672 4.9370117 31.165352 12.342529 42.852356c3.7027588 5.843506 8.022644 10.713089 12.651093 14.121811c2.314209 1.7043457 4.7055664 3.0434875 7.135498 3.9565277c1.2149658 0.4565277 2.4395752 0.8065338 3.6690369 1.0424042l0.28451538 0.051254272" fill-rule="evenodd"/><path fill="#000000" stroke="#000000" stroke-width="1.0" stroke-linecap="butt" d="m463.2008 149.96924l-1.2206116 1.0195618l3.1779175 -0.8438873l-2.9768677 -1.396286z" fill-rule="evenodd"/><path fill="#000000" fill-opacity="0.0" d="m427.1181 87.944885c0 62.29921 19.748047 124.59842 39.496063 124.59842" fill-rule="evenodd"/><path stroke="#000000" stroke-width="1.0" stroke-linejoin="round" stroke-linecap="butt" d="m427.1181 87.944885c0 31.149605 4.9370117 62.29921 12.342529 85.66141c3.7027588 11.681107 8.022644 21.41536 12.651093 28.22934c2.314209 3.4069824 4.7055664 6.083908 7.135498 7.909073c1.2149658 0.91259766 2.4395752 1.6122437 3.6690369 2.0837555c0.076812744 0.029464722 0.153656 0.058044434 0.2305603 0.08572388l0.09265137 0.03227234" fill-rule="evenodd"/><path fill="#000000" stroke="#000000" stroke-width="1.0" stroke-linecap="butt" d="m463.23947 211.94646l-1.3032532 0.9115448l3.2384033 -0.56929016l-2.8467102 -1.6455078z" fill-rule="evenodd"/><path fill="#000000" fill-opacity="0.0" d="m427.1181 87.944885c0 93.41731 19.748047 186.83466 39.496063 186.83466" fill-rule="evenodd"/><path stroke="#000000" stroke-width="1.0" stroke-linejoin="round" stroke-linecap="butt" d="m427.1181 87.944885c0 46.708664 4.9370117 93.41731 12.342529 128.44882c3.7027588 17.515747 8.022644 32.112198 12.651093 42.329712c2.314209 5.1087646 4.7055664 9.122803 7.135498 11.859619c1.2149658 1.3684387 2.4395752 2.4175415 3.6690369 3.1245422c0.076812744 0.044189453 0.153656 0.08706665 0.2305603 0.12857056l0.15109253 0.07891846" fill-rule="evenodd"/><path fill="#000000" stroke="#000000" stroke-width="1.0" stroke-linecap="butt" d="m463.2979 273.91507l-1.3718872 0.8045654l3.273529 -0.3088684l-2.7062073 -1.8675842z" fill-rule="evenodd"/><path fill="#d9ead3" d="m466.61417 312.958l87.71652 0l0 48.125977l-87.71652 0z" fill-rule="evenodd"/><path stroke="#38761d" stroke-width="1.0" stroke-linejoin="round" stroke-linecap="butt" d="m466.61417 312.958l87.71652 0l0 48.125977l-87.71652 0z" fill-rule="evenodd"/><path fill="#434343" d="m483.22354 340.47226l-4.46875 0l-1.03125 3.46875l-1.71875 0l4.28125 -13.265625l1.421875 0l4.28125 13.265625l-1.71875 0l-1.046875 -3.46875zm-4.03125 -1.4375l3.609375 0l-1.8125 -6.03125l-1.796875 6.03125zm8.030457 -0.46875q0 -2.28125 0.84375 -3.46875q0.859375 -1.1875 2.453125 -1.1875q1.421875 0 2.21875 1.140625l0 -5.109375l1.609375 0l0 14.0l-1.484375 0l-0.078125 -1.0625q-0.796875 1.25 -2.265625 1.25q-1.53125 0 -2.40625 -1.1875q-0.859375 -1.203125 -0.890625 -3.359375l0 -1.015625zm1.625 0.921875q0 1.65625 0.484375 2.4375q0.5 0.78125 1.609375 0.78125q1.203125 0 1.796875 -1.21875l0 -4.96875q-0.625 -1.1875 -1.796875 -1.1875q-1.109375 0 -1.609375 0.78125q-0.484375 0.78125 -0.484375 2.390625l0 0.984375zm13.052124 4.453125q-0.15625 -0.3125 -0.21875 -1.078125q-0.859375 1.265625 -2.1875 1.265625q-1.328125 0 -2.09375 -0.75q-0.75 -0.765625 -0.75 -2.125q0 -1.5 1.015625 -2.375q1.03125 -0.890625 2.8125 -0.90625l1.1875 0l0 -1.046875q0 -0.890625 -0.40625 -1.265625q-0.390625 -0.375 -1.1875 -0.375q-0.734375 0 -1.1875 0.4375q-0.453125 0.4375 -0.453125 1.09375l-1.609375 0q0 -0.75 0.4375 -1.4375q0.453125 -0.6875 1.203125 -1.078125q0.765625 -0.390625 1.6875 -0.390625q1.515625 0 2.296875 0.75q0.796875 0.75 0.8125 2.1875l0 4.96875q0.015625 1.140625 0.3125 1.984375l0 0.140625l-1.671875 0zm-2.15625 -1.28125q0.59375 0 1.125 -0.328125q0.546875 -0.328125 0.796875 -0.828125l0 -2.34375l-0.921875 0q-1.140625 0.015625 -1.8125 0.515625q-0.65625 0.5 -0.65625 1.390625q0 0.828125 0.328125 1.21875q0.34375 0.375 1.140625 0.375zm7.530182 -8.578125l0.046875 0.90625q0.890625 -1.078125 2.375 -1.078125q1.640625 0 2.296875 1.421875q0.9375 -1.421875 2.59375 -1.421875q2.71875 0 2.78125 3.390625l0 6.640625l-1.59375 0l0 -6.484375q0 -1.078125 -0.390625 -1.59375q-0.375 -0.53125 -1.296875 -0.53125q-0.71875 0 -1.1875 0.5625q-0.453125 0.5625 -0.515625 1.4375l0 6.609375l-1.625 0l0 -6.5625q-0.03125 -2.046875 -1.671875 -2.046875q-1.21875 0 -1.71875 1.21875l0 7.390625l-1.59375 0l0 -9.859375l1.5 0z" fill-rule="nonzero"/><path fill="#000000" fill-opacity="0.0" d="m427.1181 87.944885c0 124.53543 19.748047 249.07086 39.496063 249.07086" fill-rule="evenodd"/><path stroke="#000000" stroke-width="1.0" stroke-linejoin="round" stroke-linecap="butt" d="m427.1181 87.944885c0 62.267715 4.9370117 124.53543 12.342529 171.2362c3.7027588 23.350403 8.022644 42.80905 12.651093 56.430115c2.314209 6.810547 4.7055664 12.161682 7.135498 15.810181c1.2149658 1.8242493 2.4395752 3.2228394 3.6690369 4.1653748c0.076812744 0.058898926 0.153656 0.11602783 0.2305603 0.1713562l0.22253418 0.15496826" fill-rule="evenodd"/><path fill="#000000" stroke="#000000" stroke-width="1.0" stroke-linecap="butt" d="m463.36932 335.9131l-1.4266052 0.7029419l3.2872925 -0.07064819l-2.5636292 -2.0589294z" fill-rule="evenodd"/><path fill="#d9d9d9" d="m769.8793 164.98425l0 0c0 -12.967819 34.604492 -23.480316 77.29132 -23.480316l0 0c42.68683 0 77.29132 10.512497 77.29132 23.480316l0 0c0 12.967819 -34.604492 23.480316 -77.29132 23.480316l0 0c-42.68683 0 -77.29132 -10.512497 -77.29132 -23.480316z" fill-rule="evenodd"/><path stroke="#999999" stroke-width="1.0" stroke-linejoin="round" stroke-linecap="butt" d="m769.8793 164.98425l0 0c0 -12.967819 34.604492 -23.480316 77.29132 -23.480316l0 0c42.68683 0 77.29132 10.512497 77.29132 23.480316l0 0c0 12.967819 -34.604492 23.480316 -77.29132 23.480316l0 0c-42.68683 0 -77.29132 -10.512497 -77.29132 -23.480316z" fill-rule="evenodd"/><path fill="#434343" d="m807.5174 169.38863q0 -0.53125 -0.40625 -0.90625q-0.390625 -0.375 -1.5 -0.875q-1.3125 -0.53125 -1.84375 -0.90625q-0.53125 -0.390625 -0.796875 -0.875q-0.265625 -0.484375 -0.265625 -1.15625q0 -1.203125 0.875 -2.0q0.890625 -0.796875 2.25 -0.796875q1.4375 0 2.3125 0.84375q0.875 0.828125 0.875 2.140625l-1.59375 0q0 -0.671875 -0.453125 -1.140625q-0.4375 -0.46875 -1.140625 -0.46875q-0.703125 0 -1.109375 0.375q-0.40625 0.359375 -0.40625 0.984375q0 0.484375 0.296875 0.796875q0.296875 0.296875 1.421875 0.78125q1.796875 0.703125 2.4375 1.375q0.65625 0.671875 0.65625 1.703125q0 1.28125 -0.890625 2.0625q-0.875 0.765625 -2.359375 0.765625q-1.546875 0 -2.5 -0.875q-0.953125 -0.890625 -0.953125 -2.25l1.609375 0q0.03125 0.8125 0.5 1.28125q0.484375 0.46875 1.34375 0.46875q0.796875 0 1.21875 -0.359375q0.421875 -0.359375 0.421875 -0.96875zm10.8272705 -1.9375q0 2.34375 -0.84375 3.5q-0.84375 1.140625 -2.390625 1.140625q-1.484375 0 -2.28125 -1.125l0 4.734375l-1.59375 0l0 -13.65625l1.453125 0l0.078125 1.09375q0.8125 -1.265625 2.328125 -1.265625q1.625 0 2.421875 1.125q0.796875 1.125 0.828125 3.375l0 1.078125zm-1.609375 -0.921875q0 -1.65625 -0.515625 -2.4375q-0.5 -0.796875 -1.625 -0.796875q-1.15625 0 -1.765625 1.15625l0 5.125q0.59375 1.140625 1.78125 1.140625q1.09375 0 1.609375 -0.78125q0.515625 -0.796875 0.515625 -2.421875l0 -0.984375zm5.4193115 5.375l-1.609375 0l0 -14.0l1.609375 0l0 14.0zm4.2724 0l-1.609375 0l0 -9.859375l1.609375 0l0 9.859375zm0.125 -12.46875q0 0.40625 -0.234375 0.6875q-0.21875 0.265625 -0.671875 0.265625q-0.46875 0 -0.703125 -0.265625q-0.21875 -0.28125 -0.21875 -0.6875q0 -0.40625 0.21875 -0.6875q0.234375 -0.296875 0.6875 -0.296875q0.46875 0 0.6875 0.296875q0.234375 0.28125 0.234375 0.6875zm4.522339 0.21875l0 2.390625l1.484375 0l0 1.3125l-1.484375 0l0 6.109375q0 0.578125 0.1875 0.890625q0.203125 0.296875 0.65625 0.296875q0.328125 0 0.65625 -0.109375l-0.015625 1.359375q-0.546875 0.1875 -1.125 0.1875q-0.953125 0 -1.453125 -0.6875q-0.5 -0.6875 -0.5 -1.9375l0 -6.109375l-1.515625 0l0 -1.3125l1.515625 0l0 -2.390625l1.59375 0zm9.933105 4.828125l-6.390625 0l0 -1.453125l6.390625 0l0 1.453125zm0 3.78125l-6.390625 0l0 -1.453125l6.390625 0l0 1.453125zm2.7176514 -5.890625l-0.890625 -0.65625q0.703125 -1.1875 0.734375 -2.46875l0 -1.34375l1.59375 0l0 1.234375q-0.015625 0.875 -0.40625 1.78125q-0.390625 0.890625 -1.03125 1.453125zm2.53125 0l-0.890625 -0.65625q0.703125 -1.1875 0.734375 -2.46875l0 -1.34375l1.59375 0l0 1.234375q-0.015625 0.875 -0.40625 1.78125q-0.390625 0.890625 -1.03125 1.453125zm5.5603027 -2.71875l0 2.390625l1.484375 0l0 1.3125l-1.484375 0l0 6.109375q0 0.578125 0.1875 0.890625q0.203125 0.296875 0.65625 0.296875q0.328125 0 0.65625 -0.109375l-0.015625 1.359375q-0.546875 0.1875 -1.125 0.1875q-0.953125 0 -1.453125 -0.6875q-0.5 -0.6875 -0.5 -1.9375l0 -6.109375l-1.515625 0l0 -1.3125l1.515625 0l0 -2.390625l1.59375 0zm7.4799805 3.90625q-0.34375 -0.0625 -0.734375 -0.0625q-1.234375 0 -1.734375 1.359375l0 7.046875l-1.609375 0l0 -9.859375l1.5625 0l0.03125 1.0q0.640625 -1.171875 1.828125 -1.171875q0.390625 0 0.640625 0.125l0.015625 1.5625zm6.310669 8.34375q-0.15625 -0.3125 -0.21875 -1.078125q-0.859375 1.265625 -2.1875 1.265625q-1.328125 0 -2.09375 -0.75q-0.75 -0.765625 -0.75 -2.125q0 -1.5 1.015625 -2.375q1.03125 -0.890625 2.8125 -0.90625l1.1875 0l0 -1.046875q0 -0.890625 -0.40625 -1.265625q-0.390625 -0.375 -1.1875 -0.375q-0.734375 0 -1.1875 0.4375q-0.453125 0.4375 -0.453125 1.09375l-1.609375 0q0 -0.75 0.4375 -1.4375q0.453125 -0.6875 1.203125 -1.078125q0.765625 -0.390625 1.6875 -0.390625q1.515625 0 2.296875 0.75q0.796875 0.75 0.8125 2.1875l0 4.96875q0.015625 1.140625 0.3125 1.984375l0 0.140625l-1.671875 0zm-2.15625 -1.28125q0.59375 0 1.125 -0.328125q0.546875 -0.328125 0.796875 -0.828125l0 -2.34375l-0.921875 0q-1.140625 0.015625 -1.8125 0.515625q-0.65625 0.5 -0.65625 1.390625q0 0.828125 0.328125 1.21875q0.34375 0.375 1.140625 0.375zm7.7489014 1.28125l-1.609375 0l0 -9.859375l1.609375 0l0 9.859375zm0.125 -12.46875q0 0.40625 -0.234375 0.6875q-0.21875 0.265625 -0.671875 0.265625q-0.46875 0 -0.703125 -0.265625q-0.21875 -0.28125 -0.21875 -0.6875q0 -0.40625 0.21875 -0.6875q0.234375 -0.296875 0.6875 -0.296875q0.46875 0 0.6875 0.296875q0.234375 0.28125 0.234375 0.6875zm3.9285889 2.609375l0.046875 1.0625q0.9375 -1.234375 2.40625 -1.234375q2.609375 0 2.640625 3.484375l0 6.546875l-1.59375 0l0 -6.484375q0 -1.15625 -0.390625 -1.640625q-0.390625 -0.484375 -1.15625 -0.484375q-0.609375 0 -1.09375 0.40625q-0.46875 0.390625 -0.765625 1.046875l0 7.15625l-1.609375 0l0 -9.859375l1.515625 0zm6.876465 0.328125l-0.890625 -0.65625q0.703125 -1.1875 0.734375 -2.46875l0 -1.34375l1.59375 0l0 1.234375q-0.015625 0.875 -0.40625 1.78125q-0.390625 0.890625 -1.03125 1.453125zm2.53125 0l-0.890625 -0.65625q0.703125 -1.1875 0.734375 -2.46875l0 -1.34375l1.59375 0l0 1.234375q-0.015625 0.875 -0.40625 1.78125q-0.390625 0.890625 -1.03125 1.453125z" fill-rule="nonzero"/><path fill="#000000" fill-opacity="0.0" d="m586.01575 150.28084c10.661438 0 15.992126 -6.015747 21.322815 -12.031494c5.3307495 -6.015747 10.661438 -12.031494 21.322876 -12.031494" fill-rule="evenodd"/><path stroke="#000000" stroke-width="1.0" stroke-linejoin="round" stroke-linecap="butt" d="m586.01575 150.28084c10.661438 0 15.992126 -6.015747 21.322815 -12.031494c2.6654053 -3.0078735 5.3307495 -6.015747 8.662415 -8.271652c1.6658325 -1.1279602 3.498291 -2.0679169 5.5805664 -2.7258835c1.0411377 -0.32898712 2.1447754 -0.58747864 3.321289 -0.7637253l0.33874512 -0.0473938" fill-rule="evenodd"/><path fill="#000000" stroke="#000000" stroke-width="1.0" stroke-linecap="butt" d="m625.2416 126.44069l-1.0490723 1.1953278l3.0101318 -1.3231125l-3.156372 -0.92129517z" fill-rule="evenodd"/><path fill="#000000" fill-opacity="0.0" d="m586.01575 150.28084c45.96576 0 68.947266 3.6771698 91.93152 7.3543396c22.984253 3.6771545 45.971252 7.3543243 91.942505 7.3543243" fill-rule="evenodd"/><path stroke="#000000" stroke-width="1.0" stroke-linejoin="round" stroke-linecap="butt" d="m586.01575 150.28084c45.96576 0 68.947205 3.6771698 91.93146 7.3543396c11.4921875 1.8385773 22.984985 3.6771545 37.351196 5.0560913c7.1830444 0.6894684 15.084473 1.2640228 24.063416 1.666214c4.48938 0.20109558 9.248169 0.35910034 14.321228 0.4668274c2.536499 0.053863525 5.1516113 0.09516907 7.85083 0.1230011c1.3496704 0.013916016 2.720337 0.024459839 4.112671 0.03152466l0.8161621 0.0030975342" fill-rule="evenodd"/><path fill="#000000" stroke="#000000" stroke-width="1.0" stroke-linecap="butt" d="m766.4627 164.98193l-1.1270752 1.1221008l3.0922241 -1.1177673l-3.0872803 -1.1313934z" fill-rule="evenodd"/><path fill="#000000" fill-opacity="0.0" d="m675.46454 274.7743c11.463928 0 17.195496 0.01574707 22.927795 0.03149414c5.7323 0.01574707 11.465271 0.03149414 22.930481 0.03149414" fill-rule="evenodd"/><path stroke="#000000" stroke-width="1.0" stroke-linejoin="round" stroke-linecap="butt" d="m675.46454 274.7743c11.463928 0 17.195496 0.01574707 22.927795 0.03149414c2.8660889 0.007873535 5.732422 0.01574707 9.315369 0.021636963c1.7915039 0.002960205 3.762085 0.005432129 6.001465 0.0071411133l4.1865845 0.0014953613" fill-rule="evenodd"/><path fill="#000000" stroke="#000000" stroke-width="1.0" stroke-linecap="butt" d="m717.89575 274.83606l-1.125 1.124176l3.09021 -1.1234741l-3.0894165 -1.1257019z" fill-rule="evenodd"/><path fill="#d9d9d9" d="m610.0656 343.20996l0 0c0 -12.967804 51.110046 -23.480316 114.15747 -23.480316l0 0c63.047424 0 114.15747 10.512512 114.15747 23.480316l0 0c0 12.967834 -51.110046 23.480316 -114.15747 23.480316l0 0c-63.047424 0 -114.15747 -10.512482 -114.15747 -23.480316z" fill-rule="evenodd"/><path stroke="#999999" stroke-width="1.0" stroke-linejoin="round" stroke-linecap="butt" d="m610.0656 343.20996l0 0c0 -12.967804 51.110046 -23.480316 114.15747 -23.480316l0 0c63.047424 0 114.15747 10.512512 114.15747 23.480316l0 0c0 12.967834 -51.110046 23.480316 -114.15747 23.480316l0 0c-63.047424 0 -114.15747 -10.512482 -114.15747 -23.480316z" fill-rule="evenodd"/><path fill="#434343" d="m655.4391 350.12997l-1.609375 0l0 -14.0l1.609375 0l0 14.0zm6.069214 0.1875q-1.84375 0 -2.828125 -1.09375q-0.984375 -1.109375 -1.0 -3.234375l0 -1.1875q0 -2.203125 0.953125 -3.453125q0.96875 -1.25 2.6875 -1.25q1.734375 0 2.578125 1.109375q0.859375 1.09375 0.875 3.421875l0 1.046875l-5.5 0l0 0.234375q0 1.59375 0.59375 2.3125q0.609375 0.71875 1.71875 0.71875q0.71875 0 1.25 -0.265625q0.546875 -0.28125 1.03125 -0.859375l0.828125 1.015625q-1.046875 1.484375 -3.1875 1.484375zm-0.1875 -8.84375q-1.0 0 -1.484375 0.6875q-0.484375 0.6875 -0.546875 2.140625l3.875 0l0 -0.21875q-0.0625 -1.40625 -0.5 -2.0q-0.4375 -0.609375 -1.34375 -0.609375zm10.470398 8.65625q-0.15625 -0.3125 -0.21875 -1.078125q-0.859375 1.265625 -2.1875 1.265625q-1.328125 0 -2.09375 -0.75q-0.75 -0.765625 -0.75 -2.125q0 -1.5 1.015625 -2.375q1.03125 -0.890625 2.8125 -0.90625l1.1875 0l0 -1.046875q0 -0.890625 -0.40625 -1.265625q-0.390625 -0.375 -1.1875 -0.375q-0.734375 0 -1.1875 0.4375q-0.453125 0.4375 -0.453125 1.09375l-1.609375 0q0 -0.75 0.4375 -1.4375q0.453125 -0.6875 1.203125 -1.078125q0.765625 -0.390625 1.6875 -0.390625q1.515625 0 2.296875 0.75q0.796875 0.75 0.8125 2.1875l0 4.96875q0.015625 1.140625 0.3125 1.984375l0 0.140625l-1.671875 0zm-2.15625 -1.28125q0.59375 0 1.125 -0.328125q0.546875 -0.328125 0.796875 -0.828125l0 -2.34375l-0.921875 0q-1.140625 0.015625 -1.8125 0.515625q-0.65625 0.5 -0.65625 1.390625q0 0.828125 0.328125 1.21875q0.34375 0.375 1.140625 0.375zm10.092651 -7.0625q-0.34375 -0.0625 -0.734375 -0.0625q-1.234375 0 -1.734375 1.359375l0 7.046875l-1.609375 0l0 -9.859375l1.5625 0l0.03125 1.0q0.640625 -1.171875 1.828125 -1.171875q0.390625 0 0.640625 0.125l0.015625 1.5625zm3.112732 -1.515625l0.046875 1.0625q0.9375 -1.234375 2.40625 -1.234375q2.609375 0 2.640625 3.484375l0 6.546875l-1.59375 0l0 -6.484375q0 -1.15625 -0.390625 -1.640625q-0.390625 -0.484375 -1.15625 -0.484375q-0.609375 0 -1.09375 0.40625q-0.46875 0.390625 -0.765625 1.046875l0 7.15625l-1.609375 0l0 -9.859375l1.515625 0zm9.246216 9.859375l-1.609375 0l0 -9.859375l1.609375 0l0 9.859375zm0.125 -12.46875q0 0.40625 -0.234375 0.6875q-0.21875 0.265625 -0.671875 0.265625q-0.46875 0 -0.703125 -0.265625q-0.21875 -0.28125 -0.21875 -0.6875q0 -0.40625 0.21875 -0.6875q0.234375 -0.296875 0.6875 -0.296875q0.46875 0 0.6875 0.296875q0.234375 0.28125 0.234375 0.6875zm3.92865 2.609375l0.046875 1.0625q0.9375 -1.234375 2.40625 -1.234375q2.609375 0 2.640625 3.484375l0 6.546875l-1.59375 0l0 -6.484375q0 -1.15625 -0.390625 -1.640625q-0.390625 -0.484375 -1.15625 -0.484375q-0.609375 0 -1.09375 0.40625q-0.46875 0.390625 -0.765625 1.046875l0 7.15625l-1.609375 0l0 -9.859375l1.515625 0zm7.199341 4.484375q0 -2.296875 0.828125 -3.46875q0.84375 -1.1875 2.453125 -1.1875q1.5 0 2.28125 1.28125l0.09375 -1.109375l1.453125 0l0 9.953125q0 1.828125 -0.9375 2.796875q-0.9375 0.984375 -2.609375 0.984375q-0.734375 0 -1.640625 -0.359375q-0.90625 -0.359375 -1.359375 -0.890625l0.65625 -1.109375q1.0 0.984375 2.203125 0.984375q2.015625 0 2.078125 -2.1875l0 -1.28125q-0.78125 1.15625 -2.234375 1.15625q-1.53125 0 -2.390625 -1.15625q-0.84375 -1.15625 -0.875 -3.3125l0 -1.09375zm1.609375 0.921875q0 1.65625 0.484375 2.4375q0.484375 0.78125 1.59375 0.78125q1.203125 0 1.8125 -1.234375l0 -4.921875q-0.640625 -1.21875 -1.796875 -1.21875q-1.109375 0 -1.609375 0.78125q-0.484375 0.78125 -0.484375 2.390625l0 0.984375zm14.019653 5.828125l-7.109375 0l0 -1.375l7.109375 0l0 1.375zm5.504883 -9.71875q-0.34375 -0.0625 -0.734375 -0.0625q-1.234375 0 -1.734375 1.359375l0 7.046875l-1.609375 0l0 -9.859375l1.5625 0l0.03125 1.0q0.640625 -1.171875 1.828125 -1.171875q0.390625 0 0.640625 0.125l0.015625 1.5625zm6.310608 8.34375q-0.15625 -0.3125 -0.21875 -1.078125q-0.859375 1.265625 -2.1875 1.265625q-1.328125 0 -2.09375 -0.75q-0.75 -0.765625 -0.75 -2.125q0 -1.5 1.015625 -2.375q1.03125 -0.890625 2.8125 -0.90625l1.1875 0l0 -1.046875q0 -0.890625 -0.40625 -1.265625q-0.390625 -0.375 -1.1875 -0.375q-0.734375 0 -1.1875 0.4375q-0.453125 0.4375 -0.453125 1.09375l-1.609375 0q0 -0.75 0.4375 -1.4375q0.453125 -0.6875 1.203125 -1.078125q0.765625 -0.390625 1.6875 -0.390625q1.515625 0 2.296875 0.75q0.796875 0.75 0.8125 2.1875l0 4.96875q0.015625 1.140625 0.3125 1.984375l0 0.140625l-1.671875 0zm-2.15625 -1.28125q0.59375 0 1.125 -0.328125q0.546875 -0.328125 0.796875 -0.828125l0 -2.34375l-0.921875 0q-1.140625 0.015625 -1.8125 0.515625q-0.65625 0.5 -0.65625 1.390625q0 0.828125 0.328125 1.21875q0.34375 0.375 1.140625 0.375zm8.123962 -10.96875l0 2.390625l1.484375 0l0 1.3125l-1.484375 0l0 6.109375q0 0.578125 0.1875 0.890625q0.203125 0.296875 0.65625 0.296875q0.328125 0 0.65625 -0.109375l-0.015625 1.359375q-0.546875 0.1875 -1.125 0.1875q-0.953125 0 -1.453125 -0.6875q-0.5 -0.6875 -0.5 -1.9375l0 -6.109375l-1.515625 0l0 -1.3125l1.515625 0l0 -2.390625l1.59375 0zm6.9331055 12.4375q-1.84375 0 -2.828125 -1.09375q-0.984375 -1.109375 -1.0 -3.234375l0 -1.1875q0 -2.203125 0.953125 -3.453125q0.96875 -1.25 2.6875 -1.25q1.734375 0 2.578125 1.109375q0.859375 1.09375 0.875 3.421875l0 1.046875l-5.5 0l0 0.234375q0 1.59375 0.59375 2.3125q0.609375 0.71875 1.71875 0.71875q0.71875 0 1.25 -0.265625q0.546875 -0.28125 1.03125 -0.859375l0.828125 1.015625q-1.046875 1.484375 -3.1875 1.484375zm-0.1875 -8.84375q-1.0 0 -1.484375 0.6875q-0.484375 0.6875 -0.546875 2.140625l3.875 0l0 -0.21875q-0.0625 -1.40625 -0.5 -2.0q-0.4375 -0.609375 -1.34375 -0.609375zm11.923523 1.234375l-6.390625 0l0 -1.453125l6.390625 0l0 1.453125zm0 3.78125l-6.390625 0l0 -1.453125l6.390625 0l0 1.453125zm9.358276 -2.015625q0 2.9375 -0.859375 4.390625q-0.859375 1.453125 -2.6875 1.453125q-1.78125 0 -2.65625 -1.390625q-0.875 -1.40625 -0.90625 -4.203125l0 -2.265625q0 -2.90625 0.859375 -4.34375q0.859375 -1.4375 2.6875 -1.4375q1.796875 0 2.65625 1.359375q0.859375 1.359375 0.90625 4.109375l0 2.328125zm-1.609375 -2.3125q0 -2.09375 -0.46875 -3.09375q-0.46875 -1.0 -1.484375 -1.0q-1.0 0 -1.46875 0.984375q-0.453125 0.96875 -0.46875 2.953125l0 2.734375q0 2.09375 0.46875 3.15625q0.484375 1.046875 1.484375 1.046875q0.984375 0 1.4375 -0.984375q0.46875 -1.0 0.5 -3.046875l0 -2.75zm3.9753418 7.078125q0 -0.4375 0.25 -0.71875q0.265625 -0.296875 0.78125 -0.296875q0.53125 0 0.796875 0.296875q0.265625 0.28125 0.265625 0.71875q0 0.421875 -0.265625 0.703125q-0.265625 0.28125 -0.796875 0.28125q-0.515625 0 -0.78125 -0.28125q-0.25 -0.28125 -0.25 -0.703125zm11.753723 -4.765625q0 2.9375 -0.859375 4.390625q-0.859375 1.453125 -2.6875 1.453125q-1.78125 0 -2.65625 -1.390625q-0.875 -1.40625 -0.90625 -4.203125l0 -2.265625q0 -2.90625 0.859375 -4.34375q0.859375 -1.4375 2.6875 -1.4375q1.796875 0 2.65625 1.359375q0.859375 1.359375 0.90625 4.109375l0 2.328125zm-1.609375 -2.3125q0 -2.09375 -0.46875 -3.09375q-0.46875 -1.0 -1.484375 -1.0q-1.0 0 -1.46875 0.984375q-0.453125 0.96875 -0.46875 2.953125l0 2.734375q0 2.09375 0.46875 3.15625q0.484375 1.046875 1.484375 1.046875q0.984375 0 1.4375 -0.984375q0.46875 -1.0 0.5 -3.046875l0 -2.75zm8.522217 7.96875l-1.609375 0l0 -11.234375l-2.796875 1.25l0 -1.53125l4.15625 -1.8125l0.25 0l0 13.328125z" fill-rule="nonzero"/><path fill="#000000" fill-opacity="0.0" d="m554.3307 337.021c13.933655 0 20.898865 1.551178 27.86737 3.102356c6.968506 1.551178 13.940308 3.102356 27.880676 3.102356" fill-rule="evenodd"/><path stroke="#000000" stroke-width="1.0" stroke-linejoin="round" stroke-linecap="butt" d="m554.3307 337.021c13.933655 0 20.898865 1.551178 27.86737 3.102356c3.484253 0.77560425 6.9692993 1.551178 11.325867 2.1328735c2.1782837 0.29086304 4.574463 0.53323364 7.2973022 0.70288086c1.3614502 0.08483887 2.8045654 0.15148926 4.3429565 0.19692993c0.38458252 0.011383057 0.7751465 0.021392822 1.171814 0.030059814l0.3157959 0.005706787" fill-rule="evenodd"/><path fill="#000000" stroke="#000000" stroke-width="1.0" stroke-linecap="butt" d="m606.6518 343.1918l-1.1356201 1.1134033l3.100708 -1.0939636l-3.0784302 -1.1550903z" fill-rule="evenodd"/><path fill="#000000" fill-opacity="0.0" d="m586.01575 212.52756c9.661438 0 14.492126 3.86615 19.322815 7.7322845c4.8307495 3.86615 9.661438 7.7322845 19.322876 7.7322845" fill-rule="evenodd"/><path stroke="#999999" stroke-width="1.0" stroke-linejoin="round" stroke-linecap="butt" d="m586.01575 212.52756c9.661438 0 14.492126 3.86615 19.322815 7.7322845c2.4154053 1.933075 4.8307495 3.86615 7.8499146 5.3159485c1.5095825 0.7248993 3.170166 1.3289795 5.05719 1.7518463c0.47174072 0.10572815 0.9576416 0.20010376 1.4588623 0.2822113c0.25061035 0.04107666 0.5050049 0.07904053 0.76348877 0.113861084c0.12921143 0.017410278 0.2593994 0.033996582 0.39068604 0.049804688l0.38012695 0.043060303" fill-rule="evenodd"/><path fill="#999999" stroke="#999999" stroke-width="1.0" stroke-linecap="butt" d="m621.23883 227.81657l-1.1807251 1.065506l3.1433105 -0.96484375l-3.0280762 -1.2813721z" fill-rule="evenodd"/><path fill="#000000" fill-opacity="0.0" d="m586.01575 212.52756c10.685059 0 16.027588 6.929138 21.370056 13.858276c5.3425293 6.929123 10.685059 13.858261 21.370117 13.858261" fill-rule="evenodd"/><path stroke="#cccccc" stroke-width="1.0" stroke-linejoin="round" stroke-linecap="butt" d="m586.01575 212.52756c10.685059 0 16.027588 6.929138 21.370056 13.858276c2.6712646 3.4645538 5.3425293 6.929123 8.681641 9.527557c1.6694946 1.2992096 3.5059814 2.3818817 5.5928955 3.1397552c1.043457 0.37893677 2.1495972 0.6766815 3.3286743 0.87968445l0.3493042 0.056152344" fill-rule="evenodd"/><path fill="#cccccc" stroke="#cccccc" stroke-width="1.0" stroke-linecap="butt" d="m625.3383 239.989l-1.2051392 1.0377502l3.164856 -0.89146423l-2.9974365 -1.3514557z" fill-rule="evenodd"/><path fill="#000000" fill-opacity="0.0" d="m586.01575 212.52756c9.562927 0 14.342346 0.01574707 19.125793 0.03149414c4.7835083 0.01574707 9.570984 0.03149414 19.141907 0.03149414" fill-rule="evenodd"/><path stroke="#000000" stroke-width="1.0" stroke-linejoin="round" stroke-linecap="butt" d="m586.01575 212.52756c9.562927 0 14.342346 0.01574707 19.125793 0.03149414c2.3917847 0.007873535 4.784485 0.01574707 7.775635 0.021652222c1.4956665 0.002960205 3.140808 0.00541687 5.010315 0.0071411133l2.928894 0.0012512207" fill-rule="evenodd"/><path fill="#000000" stroke="#000000" stroke-width="1.0" stroke-linecap="butt" d="m620.8564 212.5891l-1.125061 1.1240997l3.09021 -1.1232605l-3.0892334 -1.1259003z" fill-rule="evenodd"/></g></svg>
